<svg width="60" height="95" viewBox="0 0 60 95" fill="none" xmlns="http://www.w3.org/2000/svg">
<path d="M42.9228 47.7856C43.6131 48.2904 43.9952 48.6683 44.1489 49.5486C44.2089 50.0133 44.1749 50.3625 44.0412 50.812C44.1587 50.7876 44.2763 50.7631 44.3974 50.738C45.4745 50.5331 46.4094 50.45 47.4888 50.6553C47.6049 50.6773 47.7211 50.6994 47.8408 50.722C49.207 51.0607 51.2837 51.8798 52.1901 53.006C52.2241 53.4465 52.2344 53.8504 52.2195 54.289C52.2173 54.4065 52.2152 54.524 52.213 54.645C52.2075 54.9345 52.1991 55.2239 52.1901 55.5133C52.2719 55.4794 52.3537 55.4454 52.438 55.4105C53.6765 54.942 54.8527 54.8322 56.1176 55.2783C57.3918 55.8586 58.5505 56.7052 59.1208 58.0158C59.5832 59.8281 59.2545 61.6837 58.5662 63.388C57.793 64.648 56.9039 65.4036 55.481 65.8562C55.4813 66.0806 55.4813 66.0806 55.4817 66.3095C55.4824 66.9726 55.4819 67.6357 55.4813 68.2988C55.4811 68.6789 55.4811 69.0589 55.4813 69.4389C55.4818 70.7368 55.4781 72.0347 55.4684 73.3326C55.4638 73.9644 55.461 74.5962 55.4622 75.228C55.4632 75.8493 55.4596 76.4704 55.453 77.0917C55.4513 77.325 55.4511 77.5584 55.4527 77.7917C55.4636 79.629 55.5029 81.7118 54.2273 83.0942C53.4504 83.7898 53.3654 83.8778 51.7199 83.8778C50.1905 83.7086 48.5107 82.7411 47.1754 81.9973C47.0729 81.944 46.9705 81.8906 46.865 81.8357C46.2005 81.455 46.0014 80.9829 45.765 80.2735C45.5985 79.6039 45.5746 78.9418 45.5587 78.2552C45.5554 78.136 45.5521 78.0167 45.5488 77.8938C45.5385 77.5085 45.5292 77.1231 45.5201 76.7377C45.5135 76.4741 45.5069 76.2105 45.5003 75.9469C45.4665 74.5587 45.4364 73.1704 45.432 71.7818C45.4312 71.6575 45.4305 71.5333 45.4298 71.4053C45.4321 70.5964 45.4321 70.5964 45.6083 70.244C45.4713 70.3087 45.3343 70.3733 45.1932 70.4399C43.933 71.0324 42.6671 71.6086 41.3897 72.1631C40.7822 72.4296 40.5353 72.4079 39.9667 72.7514C39.81 72.5947 38.5563 73.2999 38.0862 73.2999C37.4126 73.5463 38.2429 73.2999 37.381 73.6917C37.3265 73.8607 37.7182 74.6443 37.6626 74.8168C37.3839 75.6283 37.091 75.9924 36.3232 76.3949C35.3531 76.8239 34.349 77.1427 33.3323 77.4405C32.823 77.5903 33.3388 77.6734 32.8364 77.8445C32.7847 77.741 32.5763 77.8727 32.523 77.7661C32.6781 77.7661 32.6013 77.296 32.3663 77.3743C32.3663 77.0641 32.3663 76.2053 32.3663 75.8856C32.0885 75.9827 31.5466 76.2964 31.2693 76.3949C31.0375 76.4767 30.879 76.664 30.6425 76.7475C30.195 76.9079 30.383 77.2886 29.9373 77.6094C29.8911 78.0471 29.8753 78.4505 29.8795 78.8885C29.8789 79.0208 29.8783 79.1531 29.8777 79.2894C29.8767 79.5774 29.8767 79.8654 29.8777 80.1534C29.8791 80.61 29.8775 81.0665 29.8751 81.5232C29.8688 82.8217 29.8686 84.1202 29.869 85.4188C29.869 86.2127 29.866 87.0066 29.8613 87.8006C29.8596 88.2489 29.8615 88.6972 29.8634 89.1455C29.862 89.4233 29.8604 89.7011 29.8587 89.9788C29.8602 90.1022 29.8617 90.2256 29.8633 90.3527C29.8458 91.7235 29.2733 92.8068 28.3457 93.7934C27.5987 94.4929 26.8702 94.8075 25.8432 94.8732C24.3956 94.7906 22.9848 94.2413 21.7884 93.4371C21.6985 93.3777 21.6086 93.3183 21.516 93.2571C20.6966 92.6512 20.2573 91.7578 20.0646 90.773C20.0506 90.3786 20.0448 89.9886 20.0468 89.5942C20.0467 89.4764 20.0467 89.3586 20.0467 89.2373C20.0468 88.8489 20.048 88.4606 20.0493 88.0722C20.0495 87.8026 20.0498 87.533 20.0499 87.2633C20.0505 86.5543 20.0521 85.8453 20.0538 85.1364C20.0554 84.4126 20.0561 83.6888 20.0569 82.9651C20.0586 81.5455 20.0613 80.126 20.0646 78.7064C19.9696 78.6863 19.8746 78.6662 19.7768 78.6455C19.5884 78.6049 19.5884 78.6049 19.3962 78.5634C19.2722 78.5369 19.1481 78.5103 19.0203 78.483C18.4884 78.3522 18.0198 78.1537 17.518 77.9326C17.3362 77.8536 17.1544 77.7747 16.9671 77.6933C16.5166 77.4794 16.1017 77.2419 15.6767 76.9826C15.3114 76.8251 14.9457 76.6683 14.5797 76.5124C14.347 76.3573 14.347 76.3573 14.1096 76.199C14.1143 76.2964 14.1191 76.3937 14.124 76.494C14.2159 78.4288 14.2864 80.3639 14.3055 82.3009C14.3105 82.5495 14.3105 82.5495 14.3156 82.8031C14.3221 84.2709 14.0818 85.5632 13.1406 86.7261C12.3108 87.5595 11.3886 88.1248 10.2016 88.1579C8.47858 88.142 6.61375 87.3874 5.33383 86.2285C5.05714 85.7834 5.05714 85.7834 4.82452 85.298C4.74614 85.1382 4.66776 84.9784 4.58701 84.8138C4.21894 83.9274 4.21577 83.1069 4.22339 82.162C4.22379 82.0198 4.22419 81.8776 4.2246 81.7311C4.22832 80.8782 4.24088 80.0258 4.25813 79.1731C4.27796 78.1856 4.28692 77.1984 4.29042 76.2108C4.29392 75.8009 4.30139 75.3911 4.31261 74.9814C4.48526 72.844 4.48526 72.844 3.86336 70.882C3.42126 70.4985 2.96548 70.2884 2.41308 70.107C1.4596 69.7878 1.15759 69.0915 0.723132 68.2405C-0.0674831 66.5193 -0.173097 64.8689 0.319114 63.0354C1.28146 60.5739 4.82662 59.527 7.0291 58.5519C7.86258 58.1879 8.70026 57.8344 9.54063 57.4867C10.2827 57.1787 11.0043 56.8473 11.7179 56.4775C12.8928 55.8788 14.1143 55.3623 15.3339 54.8626C16.1323 54.5343 16.9172 54.1992 17.6851 53.8048C18.1283 53.582 18.5767 53.372 19.0264 53.1627C19.1859 53.0883 19.3455 53.014 19.51 52.9374C19.9403 52.7474 20.3702 52.5701 20.8077 52.3981C21.6591 52.0605 22.4865 51.679 23.3163 51.2919C25.2833 50.3825 27.2687 49.5188 29.2597 48.6637C29.86 48.4058 30.4594 48.1457 31.0581 47.8841C35.1825 46.0873 38.8195 45.3673 42.9228 47.7856Z" fill="#B64D31"/>
<path d="M28.4485 0.367356C30.946 0.262844 33.1071 0.400252 35.2654 1.6644C35.3723 1.72598 36.0669 1.60096 36.1771 1.6644C36.501 1.85192 36.8236 2.0416 37.1459 2.23197C37.2432 2.28894 37.3405 2.3459 37.4407 2.4046C38.4595 3.00341 39.432 3.59756 40.2801 4.42591C40.2801 4.52934 40.2801 4.63277 40.2801 4.73933C40.4161 4.79418 40.4161 4.79418 40.5549 4.85013C41.2535 5.25224 41.68 5.98682 42.1606 6.61985C42.2321 6.70712 42.3036 6.79438 42.3773 6.8843C43.7477 8.62676 44.2845 10.7521 44.668 12.8882C44.6983 13.0492 44.7286 13.2102 44.7598 13.3761C45.2367 16.7008 44.0369 20.8591 42.7874 23.9363C42.684 23.9363 42.894 23.7012 42.7874 23.7012C42.7551 23.8467 42.7228 23.9921 42.6895 24.142C42.4453 25.0018 41.9747 25.7509 41.5338 26.522C41.4507 26.6756 41.4507 26.6756 41.366 26.8324C41.0287 27.4517 40.6296 27.9976 40.2017 28.555C39.9792 28.8558 39.7798 29.1608 39.5847 29.4799C38.7242 30.8735 37.7649 32.0784 36.6396 33.2636C36.3625 33.5559 36.1151 33.8456 35.8647 34.1635C35.5788 34.5142 35.5788 34.5142 35.1086 34.8276C34.9153 35.2408 34.7518 35.1428 34.6024 35.6112C34.5485 35.7684 34.459 35.9194 34.4035 36.0813C34.3251 36.238 34.2878 36.2703 34.2468 36.3947C34.2468 36.3947 34.2468 36.4731 34.1684 36.5514C33.9385 36.9931 33.754 37.4366 33.5807 37.9031C33.2979 38.6196 32.9402 39.2476 32.5346 39.9005C31.8346 41.0694 31.2784 42.3157 30.7636 43.5752C30.5303 43.9745 30.3672 44.0758 29.9372 44.2302C29.4182 44.3246 29.115 44.2997 28.6578 44.0307C28.3346 43.7965 28.0285 43.5694 27.7433 43.29C27.7433 43.1865 27.7433 43.0831 27.7433 42.9765C27.5881 42.9248 27.433 42.8731 27.2732 42.8198C27.059 42.5629 26.8508 42.3009 26.6463 42.0363C26.5267 41.9167 26.4071 41.7971 26.2839 41.6739C25.8628 41.2527 25.8628 41.2527 25.613 40.9191C25.3484 40.5733 25.1019 40.2763 24.7658 39.9991C24.2497 39.9821 23.9875 40.0144 23.5121 40.1558C22.3696 40.4364 21.2785 40.5245 20.1037 40.5181C19.9386 40.5175 19.7735 40.5168 19.6035 40.5162C18.3431 40.4979 17.1993 40.3769 15.99 39.9991C15.8608 39.9591 15.7315 39.9191 15.5983 39.8779C13.0096 38.9497 10.9744 38.0686 9.09483 36.0813C8.8363 35.8199 7.49384 34.1635 7.91949 34.5632C5.94837 32.8929 4.93197 29.6347 4.70693 27.1488C4.31754 20.9138 6.35767 15.379 9.95672 10.3515C10.0404 10.2342 10.124 10.1169 10.2102 9.99607C11.0419 8.84691 11.9094 7.82626 13.0126 6.93327C13.0901 6.77812 13.0901 6.77812 13.1693 6.61985C13.2727 6.61985 13.3761 6.61985 13.4827 6.61985C13.4827 6.51642 13.4827 6.41299 13.4827 6.30643C13.7294 6.0579 13.7294 6.0579 14.0606 5.77753C14.1747 5.68077 14.2888 5.58401 14.4064 5.48431C14.5153 5.39361 14.6242 5.30291 14.7364 5.20946C14.885 5.08341 15.0337 4.95735 15.1869 4.82748C15.5199 4.58262 15.5199 4.58262 15.8333 4.58262C15.8333 4.47919 15.8333 4.37576 15.8333 4.2692C16.2196 3.98521 16.6048 3.72306 17.0087 3.46606C17.129 3.38917 17.2494 3.31228 17.3734 3.23306C19.274 2.03884 21.2001 1.137 23.3554 0.508163C23.511 0.461701 23.6665 0.415239 23.8268 0.367369C25.471 0.508171 26.9145 0.502061 28.4485 0.367356ZM31.0342 17.4328C30.7037 18.1633 30.6665 18.6966 30.8775 19.4701C31.2042 19.9536 31.2042 19.9536 31.661 20.2536C32.1036 20.233 32.3654 20.1365 32.758 19.9402C32.758 19.8368 32.8364 19.8117 32.8364 19.7051C32.9915 19.6534 33.0683 19.5233 33.2281 19.4701C33.5541 18.8764 33.7047 18.5415 33.6787 17.8638C33.5364 17.4167 33.4516 17.2302 33.0714 16.9627C32.3493 16.6016 31.6908 17.1045 31.0342 17.4328ZM24.6091 20.2536C24.4692 20.829 24.4184 21.3862 24.4524 21.9774C24.7371 22.5107 24.7371 22.5107 25.2359 22.761C25.9225 22.761 26.4142 22.5432 26.9597 22.1341C27.3605 21.4798 27.3843 20.8447 27.2732 20.0969C27.0377 19.6782 27.0377 19.6782 26.6463 19.4701C25.8467 19.3228 25.1676 19.695 24.6091 20.2536ZM18.6541 22.4476C18.2091 23.121 18.2388 23.8637 18.3407 24.6415C18.5504 25.0867 18.5504 25.0867 18.9675 25.2683C19.5955 25.2683 19.9669 25.1702 20.5052 24.8472C20.9157 24.4133 21.0467 24.1301 21.1615 23.5445C21.1397 22.7663 21.1397 22.7663 20.7207 22.1439C19.9582 21.7735 19.3547 22.0843 18.6541 22.4476Z" fill="#628DC1"/>
<path d="M19.2811 3.0155C14.6101 5.30234 13.4828 7.16831 9.72178 11.7129C8.85991 11.7129 9.25758 10.5658 11.6807 7.8735C14.5015 4.73931 19.1522 1.22183 24.9227 0.194717C27.2336 -0.216608 30.5572 0.088905 32.7582 0.508141C39.34 1.76181 42.5926 6.86986 43.1794 8.10857C43.8846 9.59731 44.1196 10.3025 44.3547 11.3995C43.5711 9.80626 43.6628 6.95462 37.3027 3.72069C30.9427 0.486767 23.1988 1.09744 19.2811 3.0155Z" fill="#97B8E0"/>
<path d="M42.9227 47.7856C43.6131 48.2904 43.9952 48.6683 44.1489 49.5486C44.2089 50.0133 44.1749 50.3625 44.0411 50.812C44.1587 50.7876 44.2763 50.7631 44.3974 50.738C45.4745 50.5331 46.4094 50.45 47.4888 50.6553C47.6049 50.6773 47.7211 50.6994 47.8407 50.722C49.207 51.0607 51.2837 51.8798 52.19 53.006C52.2241 53.4465 52.2344 53.8504 52.2194 54.289C52.2173 54.4065 52.2152 54.524 52.213 54.645C52.2075 54.9345 52.199 55.2239 52.19 55.5133C52.2719 55.4794 52.3537 55.4454 52.438 55.4105C53.6765 54.942 54.8527 54.8322 56.1176 55.2783C57.3939 55.8595 58.539 56.7046 59.1226 58.009C59.3774 59.0373 59.2968 60.1045 59.242 61.1549C59.1903 61.1549 59.1386 61.1549 59.0853 61.1549C59.0336 60.4309 59.2842 59.3225 59.2309 58.5766C58.9934 58.7705 58.691 59.1549 58.4486 59.3527C56.5748 60.7411 54.3846 61.5733 52.247 62.4618C51.432 62.8006 50.6241 63.1521 49.8198 63.5153C48.7575 63.9939 47.6846 64.443 46.6073 64.8865C45.1818 65.4747 43.7778 66.0995 42.3792 66.7488C41.1561 67.3145 39.9221 67.8521 38.6836 68.3831C36.599 69.2777 34.5365 70.2172 32.4782 71.1706C24.2482 74.9809 24.2482 74.9809 20.252 73.6633C19.1086 73.237 18.0155 72.6799 16.9303 72.1246C17.1435 71.3785 17.5438 70.9655 18.184 70.5575C18.7405 70.2772 19.3119 70.0398 19.8882 69.8033C20.9476 69.3568 21.9932 68.905 23.0126 68.3733C24.0204 67.8538 25.0514 67.4083 26.0979 66.9727C27.8792 66.2311 29.6391 65.4477 31.3966 64.6515C33.4385 63.7266 35.4868 62.8206 37.5475 61.9384C39.7127 61.0113 41.8541 60.039 43.9892 59.0443C45.7705 58.2147 47.5583 57.4138 49.3752 56.6646C50.2286 56.3123 51.0564 55.9375 51.8766 55.5133C51.8808 55.1771 51.8839 54.8408 51.8864 54.5045C51.8891 54.2236 51.8891 54.2236 51.8919 53.937C51.9298 53.4935 51.9298 53.4935 51.7199 53.3194C51.6382 53.4138 51.5565 53.5083 51.4723 53.6056C51.0183 54.0134 50.6126 54.1701 50.0408 54.3815C49.1727 54.7122 48.3217 55.0655 47.4783 55.4552C47.3714 55.5045 47.2644 55.5538 47.1542 55.6047C46.9327 55.7071 46.7113 55.8097 46.49 55.9125C44.6132 56.7831 42.7292 57.6343 40.8286 58.4516C40.7327 58.4929 40.6369 58.5341 40.5381 58.5766C40.4426 58.6177 40.3471 58.6587 40.2487 58.701C38.9592 59.2558 37.6739 59.8192 36.3917 60.3909C35.038 60.9943 33.6836 61.5961 32.3271 62.1931C32.1647 62.2646 32.0023 62.3361 31.8349 62.4097C31.0757 62.7435 30.3159 63.0756 29.554 63.4033C27.5908 64.2487 25.6447 65.1278 23.7028 66.0207C22.1004 66.7574 20.4945 67.4822 18.8681 68.1646C17.1617 68.89 15.7343 69.7098 14.423 71.0276C14.2598 70.9385 14.0965 70.8494 13.9284 70.7576C12.666 70.0754 11.4016 69.4336 10.077 68.8801C8.88393 68.3787 8.88393 68.3787 8.468 68.0501C8.41241 67.6804 8.41241 67.6804 8.468 67.2666C9.33921 66.0929 10.7736 65.5083 12.0625 64.9159C12.2669 64.8199 12.4711 64.7238 12.6753 64.6275C13.2563 64.3544 13.8393 64.0861 14.423 63.8189C14.5658 63.7534 14.7087 63.6878 14.8558 63.6202C15.6476 63.2586 16.4439 62.9086 17.2438 62.5653C17.3728 62.5098 17.5019 62.4544 17.6349 62.3973C18.1944 62.1574 18.7541 61.9178 19.3138 61.6785C21.0346 60.942 22.747 60.193 24.4371 59.3882C26.9608 58.188 29.5026 57.0565 32.0828 55.9828C33.7734 55.2788 35.453 54.5533 37.1263 53.8091C42.416 51.4582 42.416 51.4582 43.8844 50.9687C43.8666 50.6878 43.8466 50.4071 43.8257 50.1264C43.8148 49.9701 43.8038 49.8137 43.7926 49.6526C43.7648 49.2206 43.7648 49.2206 43.4143 48.9315C43.3397 48.9822 43.2651 49.0328 43.1883 49.085C42.5357 49.5125 41.9076 49.8413 41.1697 50.094C39.9897 50.4984 38.8448 50.9475 37.7121 51.4701C36.6453 51.9561 35.575 52.431 34.4959 52.889C34.3673 52.9437 34.2386 52.9983 34.1061 53.0546C33.8418 53.1668 33.5776 53.2789 33.3133 53.3909C30.9482 54.3947 28.599 55.4265 26.2663 56.5032C24.7456 57.2049 23.2197 57.8888 21.6806 58.5496C18.0136 60.1259 14.363 61.7483 10.7599 63.4663C10.5356 63.5727 10.5356 63.5727 10.3067 63.6812C7.81514 64.8312 7.81514 64.8312 6.2508 66.9691C6.08643 67.7215 6.04595 68.4477 6.01941 69.2156C6.01032 69.4324 6.01032 69.4324 6.00104 69.6536C5.98639 70.0071 5.97295 70.3606 5.96064 70.7142C5.70207 70.7659 5.4435 70.8176 5.17709 70.8709C5.22881 70.7157 5.28052 70.5606 5.3338 70.4008C5.48895 70.4008 5.64409 70.4008 5.80393 70.4008C5.80311 70.3099 5.80229 70.2191 5.80145 70.1255C5.79817 69.7112 5.79614 69.2969 5.79414 68.8826C5.79282 68.7397 5.79151 68.5968 5.79016 68.4495C5.78965 68.3107 5.78915 68.1718 5.78863 68.0287C5.78781 67.9015 5.78699 67.7743 5.78614 67.6432C5.80503 67.2433 5.87289 66.8732 5.96064 66.483C5.60212 66.3388 5.24342 66.1952 4.88288 66.056C2.20522 65.022 2.20522 65.022 1.25935 64.1324C1.12784 64.0124 1.12784 64.0124 0.993675 63.89C0.789217 63.6622 0.789217 63.6622 0.789217 63.3488C0.685789 63.3488 0.58236 63.3488 0.475798 63.3488C0.388677 65.2564 0.330566 66.809 1.25935 68.5202C1.36692 68.7802 1.47235 69.041 1.57277 69.3038C0.617611 68.4423 0.170937 67.2066 0.0154623 65.9443C-0.0488501 64.5516 0.0565349 63.0904 0.931236 61.9537C3.14715 59.7337 6.70012 58.6621 9.5406 57.4867C10.2826 57.1787 11.0043 56.8473 11.7179 56.4775C12.8928 55.8788 14.1143 55.3623 15.3339 54.8626C16.1323 54.5343 16.9172 54.1992 17.6851 53.8048C18.1283 53.582 18.5767 53.372 19.0263 53.1627C19.1859 53.0883 19.3455 53.014 19.5099 52.9374C19.9403 52.7474 20.3702 52.5701 20.8077 52.3981C21.659 52.0605 22.4865 51.679 23.3163 51.2919C25.2832 50.3825 27.2686 49.5188 29.2597 48.6637C29.86 48.4058 30.4594 48.1457 31.0581 47.8841C35.1825 46.0873 38.8195 45.3673 42.9227 47.7856Z" fill="#DA825B"/>
<path d="M43.4142 48.7748C43.6475 48.9541 43.6475 48.9541 43.8844 49.2449C43.9469 49.821 43.9048 50.3904 43.8844 50.9687C42.7815 51.5392 41.6617 52.041 40.5151 52.5162C38.7621 53.2498 37.0232 54.0117 35.2867 54.7834C33.7934 55.4463 32.2939 56.0897 30.7835 56.7126C28.8355 57.5164 26.9254 58.3826 25.0232 59.2895C23.5357 59.9984 22.0431 60.6803 20.5248 61.3214C18.2488 62.2824 16.0002 63.299 13.7564 64.3327C13.2234 64.578 12.6889 64.8199 12.1543 65.0616C11.8624 65.1957 11.5706 65.3299 11.2789 65.4644C11.1524 65.5209 11.0258 65.5774 10.8954 65.6356C10.0392 66.0359 9.23201 66.5293 8.62463 67.2665C8.50563 67.6779 8.50563 67.6779 8.46792 68.0501C8.57816 68.0931 8.68839 68.1362 8.80197 68.1806C9.26611 68.3695 9.72016 68.5736 10.1752 68.7834C10.4387 68.905 10.4387 68.905 10.7075 69.0289C10.8896 69.1132 11.0717 69.1974 11.2593 69.2842C11.4396 69.3672 11.6199 69.4502 11.8057 69.5358C12.7381 69.9665 13.6643 70.4048 14.5796 70.8709C14.6507 70.7642 14.7218 70.6575 14.7951 70.5477C16.5732 68.5579 19.5495 67.6579 21.9425 66.6289C23.0627 66.1456 24.1699 65.6382 25.2751 65.1216C26.9695 64.3316 28.6811 63.5898 30.4015 62.8586C32.3853 62.015 34.3554 61.1435 36.3213 60.259C37.952 59.5255 39.5868 58.8038 41.2301 58.099C43.2937 57.2136 45.3331 56.2787 47.3678 55.3287C47.6009 55.2204 47.834 55.1121 48.0672 55.004C48.2345 54.9264 48.2345 54.9264 48.4052 54.8472C49.2596 54.4558 50.1241 54.1182 51.0109 53.806C51.3975 53.6367 51.607 53.4821 51.8766 53.1627C52.0964 53.6023 52.0837 53.985 52.1018 54.4751C52.1113 54.6541 52.1208 54.8331 52.1306 55.0175C52.0333 55.5133 52.0333 55.5133 51.6348 55.8598C51.0583 56.1581 50.4826 56.4138 49.8785 56.6495C49.639 56.7457 49.3997 56.8422 49.1605 56.939C49.0385 56.9883 48.9166 57.0376 48.7909 57.0884C47.239 57.7258 45.7181 58.4385 44.1972 59.1457C42.3413 60.0081 40.4743 60.838 38.595 61.6474C37.2956 62.2071 35.9996 62.7735 34.707 63.3488C34.535 63.4254 34.363 63.5019 34.1858 63.5808C33.2834 63.9832 32.3819 64.3876 31.481 64.7935C31.1003 64.9649 30.7195 65.1363 30.3387 65.3077C30.1508 65.3923 29.9628 65.4769 29.7692 65.564C28.4405 66.1598 27.1049 66.7364 25.7648 67.3057C24.4054 67.8834 23.0584 68.4771 21.7296 69.1223C21.1288 69.4135 20.5259 69.691 19.9102 69.9496C19.7817 70.0041 19.6533 70.0586 19.5209 70.1147C19.2784 70.2168 19.0349 70.3168 18.7905 70.4144C17.9994 70.7489 17.5801 71.1033 17.087 71.8111C16.6132 73.2325 16.8796 74.9214 17.3588 76.3C17.5337 76.6889 17.5337 76.6889 17.8926 76.9158C17.9887 76.9896 18.0849 77.0633 18.1839 77.1393C18.1839 77.3461 18.1839 77.553 18.1839 77.7661C17.279 77.8624 16.7952 77.6535 16.0231 77.187C15.71 77.0023 15.4051 76.8555 15.0693 76.7181C14.5796 76.5124 14.5796 76.5124 14.1095 76.199C14.1142 76.2963 14.119 76.3937 14.1239 76.494C14.2158 78.4288 14.2863 80.3639 14.3054 82.3009C14.3104 82.5495 14.3104 82.5495 14.3155 82.8031C14.322 84.2709 14.0817 85.5631 13.1404 86.7261C12.3107 87.5594 11.3885 88.1248 10.2015 88.1579C8.47848 88.142 6.61364 87.3874 5.33373 86.2284C5.05704 85.7834 5.05704 85.7834 4.82442 85.298C4.74604 85.1382 4.66766 84.9784 4.58691 84.8138C4.21884 83.9274 4.21567 83.1069 4.22329 82.1619C4.22369 82.0197 4.22409 81.8775 4.2245 81.731C4.22822 80.8782 4.24078 80.0257 4.25803 79.173C4.27786 78.1856 4.28682 77.1984 4.29032 76.2107C4.29382 75.8009 4.30129 75.3911 4.31251 74.9814C4.48782 72.8475 4.48782 72.8475 3.86625 70.8918C3.42374 70.5222 2.95362 70.3217 2.41447 70.1293C1.76112 69.8836 1.56202 69.639 1.26294 69.0308C1.22295 68.9334 1.18295 68.836 1.14174 68.7357C1.07083 68.5878 1.07083 68.5878 0.998495 68.437C0.86662 68.1557 0.749095 67.8679 0.632431 67.58C0.570818 67.4325 0.509205 67.285 0.445725 67.1331C0.271298 66.4539 0.279535 65.8098 0.289628 65.1118C0.289729 64.9766 0.28983 64.8415 0.289934 64.7023C0.296947 63.7063 0.296947 63.7063 0.475721 63.3488C0.579149 63.3488 0.682578 63.3488 0.78914 63.3488C0.911962 63.5104 1.03478 63.672 1.16133 63.8385C2.12251 64.9957 3.73867 65.4585 5.09927 66.0006C5.49044 66.1696 5.49044 66.1696 5.96057 66.483C5.99955 66.8782 5.99955 66.8782 5.9722 67.3706C5.95932 67.6342 5.95932 67.6342 5.94618 67.9032C5.92906 68.1795 5.92906 68.1795 5.91159 68.4615C5.902 68.6469 5.8924 68.8323 5.88252 69.0234C5.85844 69.4827 5.83213 69.9417 5.80386 70.4007C5.64871 70.4525 5.49357 70.5042 5.33373 70.5574C5.28201 70.6609 5.2303 70.7643 5.17702 70.8709C5.38387 70.8192 5.59073 70.7674 5.80386 70.7142C5.80614 70.6266 5.80843 70.539 5.81078 70.4488C5.8226 70.0442 5.8377 69.6397 5.85283 69.2352C5.85813 69.0287 5.85813 69.0287 5.86354 68.818C5.90957 67.684 6.03639 66.4101 6.91062 65.5917C8.28547 64.3529 10.0495 63.6588 11.7105 62.8896C12.0258 62.7435 12.3406 62.5963 12.655 62.4483C13.1303 62.2251 13.6062 62.0033 14.0827 61.7826C14.3267 61.6696 14.5707 61.5563 14.8145 61.4429C16.7711 60.534 18.739 59.6565 20.7213 58.8051C22.3678 58.097 23.9996 57.3598 25.6277 56.6103C28.0934 55.4758 30.5761 54.3873 33.0714 53.3194C33.4554 53.1546 33.8394 52.9897 34.2234 52.8248C34.961 52.5081 35.6989 52.1921 36.437 51.8765C37.0896 51.5974 37.7418 51.3171 38.3934 51.0354C38.6794 50.9119 38.9655 50.7885 39.2516 50.6651C39.3845 50.6077 39.5175 50.5504 39.6544 50.4913C40.559 50.1037 41.4696 49.7449 42.3962 49.4126C42.7891 49.2442 43.0853 49.0456 43.4142 48.7748Z" fill="#4F1A18"/>
<path d="M40.4368 46.7376C40.4368 46.8411 40.4368 46.9445 40.4368 47.051C40.5402 47.051 40.6437 47.051 40.7502 47.051C40.7502 47.1545 40.7502 47.2579 40.7502 47.3645C40.8537 47.3645 40.9571 47.3645 41.0636 47.3645C41.0636 47.4679 41.0636 47.5713 41.0636 47.6779C41.18 47.6714 41.2964 47.665 41.4162 47.6583C41.8659 47.6787 42.0988 47.7501 42.474 47.9913C42.5258 48.0947 42.5775 48.1982 42.6307 48.3047C42.7859 48.3564 42.941 48.4082 43.1009 48.4614C43.1009 48.5649 43.1009 48.6683 43.1009 48.7749C38.9406 50.6554 38.9406 50.6554 38.2429 50.6554C38.2429 50.7588 38.2429 50.8622 38.2429 50.9688C38.0974 50.9914 37.952 51.014 37.8021 51.0374C37.3015 51.1131 37.3015 51.1131 36.8325 51.2822C36.8325 51.3856 36.8325 51.4891 36.8325 51.5956C36.704 51.6372 36.5755 51.6789 36.4432 51.7217C36.2743 51.7771 36.1054 51.8324 35.9314 51.8895C35.7641 51.944 35.5969 51.9986 35.4245 52.0547C34.8854 52.2461 34.4227 52.4774 33.9333 52.771C33.0192 53.3194 33.0192 53.3194 32.2879 53.3194C32.3396 53.4746 32.3913 53.6297 32.4446 53.7896C32.2798 53.8587 32.1149 53.9277 31.9451 53.9989C29.83 54.8927 27.737 55.8332 25.6443 56.7778C23.8543 57.5857 22.0622 58.3878 20.2631 59.1754C19.1728 59.6531 18.0868 60.1397 17.0026 60.6309C16.1586 61.0121 15.3102 61.3817 14.4593 61.7473C12.8508 62.4391 11.2744 63.1668 9.72168 63.9757C9.56108 64.0557 9.40048 64.1357 9.23502 64.2181C8.04692 64.8277 6.80376 65.5064 6.31997 66.8124C6.07618 67.616 6.03106 68.4 6.00961 69.2353C6.00426 69.3784 5.99891 69.5215 5.99339 69.669C5.98062 70.0174 5.96974 70.3657 5.96064 70.7142C5.70207 70.766 5.4435 70.8177 5.17709 70.8709C5.22881 70.7158 5.28052 70.5607 5.3338 70.4008C5.48895 70.4008 5.64409 70.4008 5.80393 70.4008C5.80311 70.31 5.80229 70.2191 5.80145 70.1255C5.79817 69.7113 5.79614 69.297 5.79414 68.8827C5.79282 68.7398 5.79151 68.5968 5.79016 68.4496C5.78965 68.3107 5.78915 68.1718 5.78863 68.0287C5.78781 67.9015 5.78699 67.7743 5.78614 67.6433C5.80503 67.2433 5.87289 66.8732 5.96064 66.4831C5.60212 66.3388 5.24342 66.1952 4.88288 66.0561C2.20522 65.0221 2.20522 65.0221 1.25935 64.1324C1.12784 64.0124 1.12784 64.0124 0.993675 63.89C0.789217 63.6623 0.789217 63.6623 0.789217 63.3489C0.685789 63.3489 0.58236 63.3489 0.475798 63.3489C0.388677 65.2564 0.330566 66.8091 1.25935 68.5203C1.36692 68.7802 1.47235 69.0411 1.57277 69.3038C0.617611 68.4424 0.170937 67.2067 0.0154623 65.9444C-0.0488501 64.5516 0.0565349 63.0905 0.931236 61.9538C3.14715 59.7337 6.70012 58.6622 9.5406 57.4867C10.2826 57.1788 11.0043 56.8474 11.7179 56.4775C12.8928 55.8789 14.1143 55.3624 15.3339 54.8627C16.1323 54.5343 16.9172 54.1992 17.6851 53.8049C18.1283 53.5821 18.5767 53.3721 19.0263 53.1627C19.1859 53.0884 19.3455 53.0141 19.5099 52.9375C19.9403 52.7475 20.3702 52.5702 20.8077 52.3982C21.659 52.0606 22.4865 51.6791 23.3163 51.292C25.2832 50.3825 27.2686 49.5189 29.2597 48.6638C29.86 48.4059 30.4594 48.1458 31.0581 47.8842C34.1298 46.546 37.1275 45.3287 40.4368 46.7376Z" fill="#DB7B55"/>
<path d="M16.9518 72.1245C17.6983 72.3575 18.3961 72.6546 19.1066 72.9766C20.0426 73.3947 20.9701 73.7535 21.9665 74.005C21.9665 74.0567 21.9665 74.1085 21.9665 74.1617C21.3977 74.1617 20.8288 74.1617 20.2427 74.1617C20.2427 74.0583 20.2427 73.9549 20.2427 73.8483C20.1423 73.8198 20.0419 73.7914 19.9385 73.762C17.8157 73.1451 17.8157 73.1451 17.2652 72.5946C17.1118 73.0905 17.1087 73.4811 17.1673 73.9952C17.1906 74.2013 17.1906 74.2013 17.2144 74.4115C17.2671 74.8026 17.3401 75.1862 17.4219 75.5721C17.4219 75.7273 17.4219 75.8824 17.4219 76.0423C17.5254 76.094 17.6288 76.1457 17.7354 76.199C17.6837 76.3024 17.6319 76.4058 17.5787 76.5124C17.6821 76.5124 17.7855 76.5124 17.8921 76.5124C17.8921 76.6158 17.8921 76.7192 17.8921 76.8258C18.3444 77.0727 18.7592 77.2117 19.2633 77.3155C19.3885 77.3418 19.5138 77.368 19.6428 77.3951C19.7374 77.4141 19.8319 77.4331 19.9293 77.4526C19.9293 77.5561 19.9293 77.6595 19.9293 77.7661C20.162 77.8436 20.162 77.8436 20.3994 77.9228C20.5029 78.0262 20.6063 78.1296 20.7129 78.2362C24.3228 79.3208 26.7048 78.392 30.0183 76.8583C30.7046 76.5421 31.3946 76.2339 32.0841 75.9247C32.3451 75.8072 32.6061 75.6897 32.8671 75.5721C33.2738 75.3889 33.6806 75.206 34.0877 75.0236C34.7734 74.715 35.4494 74.3954 36.1194 74.054C36.6677 73.7755 37.029 73.721 37.6161 73.5349C37.6375 73.5281 37.6081 73.5728 37.6375 73.55C37.6375 73.65 37.6375 73.658 37.6375 73.7121C37.6375 73.7287 37.6375 73.7404 37.6375 73.8483C37.6472 74.0099 37.6569 74.1715 37.6669 74.338C37.6346 75.0054 37.6669 75.5721 37.4808 77.1282C37.3241 77.6877 37.2243 78.4713 35.0304 78.5496C33.5416 78.5496 33.2376 78.512 32.9932 78.4713C32.523 78.3929 31.636 77.8726 31.5828 77.7661C31.5828 77.7661 31.4475 77.0755 31.4475 76.8583C31.4475 76.434 31.5258 76.4947 31.5258 76.175C31.248 76.2721 31.4897 76.2571 31.2124 76.3557C31.0579 76.4102 30.9015 76.6129 30.7423 76.6691C29.7237 77.0286 30.4044 77.2886 29.9587 77.6094C29.9125 78.0471 29.8967 78.4504 29.9009 78.8885C29.9003 79.0208 29.8997 79.1531 29.8991 79.2893C29.8981 79.5773 29.8982 79.8653 29.8992 80.1533C29.9006 80.61 29.899 81.0665 29.8966 81.5231C29.8903 82.8217 29.8901 84.1202 29.8904 85.4187C29.8905 86.2127 29.8874 87.0066 29.8827 87.8005C29.881 88.2489 29.8829 88.6971 29.8849 89.1455C29.8835 89.4233 29.8819 89.701 29.8801 89.9788C29.8824 90.1638 29.8824 90.1638 29.8847 90.3527C29.8672 91.7234 29.2948 92.8067 28.3672 93.7933C27.6201 94.4929 26.8916 94.8074 25.8647 94.8732C24.417 94.7905 23.0063 94.2413 21.8098 93.4371C21.7199 93.3777 21.63 93.3183 21.5374 93.2571C20.718 92.6512 20.2788 91.7578 20.086 90.773C20.0721 90.3785 20.0662 89.9885 20.0682 89.5941C20.0682 89.4764 20.0682 89.3586 20.0682 89.2372C20.0683 88.8489 20.0695 88.4605 20.0707 88.0722C20.071 87.8025 20.0712 87.5329 20.0714 87.2633C20.072 86.5543 20.0735 85.8453 20.0753 85.1363C20.0769 84.4125 20.0776 83.6888 20.0784 82.965C20.08 81.5455 20.0827 80.1259 20.086 78.7063C19.9907 78.6867 19.8953 78.667 19.7971 78.6467C19.6713 78.6199 19.5454 78.5931 19.4157 78.5655C19.2291 78.5263 19.2291 78.5263 19.0387 78.4863C18.5657 78.3646 18.1594 78.162 17.7354 77.9228C17.9681 77.8452 17.9681 77.8452 18.2055 77.7661C18.2055 77.5592 18.2055 77.3524 18.2055 77.1392C18.061 77.0829 18.061 77.0829 17.9135 77.0254C17.4987 76.7782 17.416 76.5828 17.2359 76.1402C17.1598 75.959 17.1598 75.959 17.0822 75.7741C16.8043 75.0095 16.7712 74.3171 16.7755 73.5055C16.7749 73.3901 16.7743 73.2746 16.7737 73.1557C16.7753 72.3011 16.7753 72.3011 16.9518 72.1245Z" fill="#511818"/>
<path d="M51.72 53.1626C52.1514 53.594 52.0955 53.873 52.1117 54.475C52.1198 54.654 52.1279 54.833 52.1362 55.0174C52.0334 55.5132 52.0334 55.5132 51.6343 55.8597C51.058 56.1583 50.4826 56.4138 49.8786 56.6494C49.6391 56.7456 49.3998 56.8421 49.1606 56.9389C49.0386 56.9883 48.9167 57.0376 48.7911 57.0884C47.2392 57.7257 45.7182 58.4385 44.1973 59.1456C42.3414 60.0081 40.4744 60.8379 38.5951 61.6474C37.2957 62.2071 35.9997 62.7734 34.7071 63.3487C34.5351 63.4253 34.3631 63.5019 34.1859 63.5807C33.2835 63.9831 32.382 64.3875 31.4811 64.7934C31.1004 64.9649 30.7196 65.1363 30.3389 65.3076C30.1509 65.3922 29.9629 65.4768 29.7693 65.564C28.4406 66.1597 27.105 66.7364 25.7649 67.3057C24.4055 67.8834 23.0585 68.4771 21.7298 69.1223C21.1289 69.4134 20.526 69.6909 19.9103 69.9495C19.7819 70.004 19.6534 70.0585 19.5211 70.1147C19.2785 70.2167 19.035 70.3168 18.7906 70.4143C17.9995 70.7489 17.5802 71.1033 17.0871 71.8111C16.6133 73.2324 16.8797 74.9213 17.3589 76.3C17.5338 76.6888 17.5338 76.6888 17.8927 76.9158C17.9888 76.9895 18.085 77.0632 18.184 77.1392C18.184 77.3461 18.184 77.5529 18.184 77.766C17.2789 77.8623 16.7938 77.6542 16.0226 77.1851C15.711 77.0026 15.4166 76.8724 15.0792 76.7474C14.5284 76.4882 14.2902 76.2281 13.9529 75.7288C14.0043 75.6407 14.0557 75.5526 14.1087 75.4618C14.2865 75.0559 14.2964 74.7998 14.2804 74.3594C14.2772 74.2179 14.2741 74.0764 14.2709 73.9306C14.2614 73.636 14.2512 73.3413 14.2403 73.0467C14.2174 71.9358 14.3358 71.1835 15.0792 70.3125C16.0278 69.4904 16.9718 68.843 18.1155 68.3243C18.2433 68.265 18.3712 68.2056 18.5029 68.1445C19.6411 67.6204 20.7914 67.1239 21.9425 66.6289C23.0627 66.1455 24.17 65.6382 25.2752 65.1215C26.9696 64.3316 28.6812 63.5897 30.4016 62.8586C32.3854 62.0149 34.3555 61.1434 36.3214 60.259C37.9521 59.5255 39.5869 58.8038 41.2302 58.099C43.2938 57.2135 45.3333 56.2786 47.3679 55.3287C47.601 55.2203 47.8341 55.1121 48.0673 55.0039C48.1787 54.9522 48.2902 54.9005 48.405 54.8472C49.2639 54.4533 50.1335 54.1167 51.0264 53.806C51.4536 53.6516 51.4536 53.6516 51.72 53.1626Z" fill="#32110F"/>
<path d="M55.6105 66.0129C55.7279 66.9939 55.4263 68.4115 55.41 69.3992C55.2314 69.4722 55.0527 69.5452 54.8686 69.6204C53.9644 70.0092 53.1015 70.4729 52.2369 70.9386C52.1247 70.998 52.0125 71.0575 51.8969 71.1187C51.7962 71.1728 51.6956 71.227 51.5918 71.2827C51.3149 71.4001 51.3149 71.4001 50.8424 71.4001C50.8447 72.7034 50.8513 74.0066 50.8632 75.3099C50.8686 75.9151 50.8725 76.5203 50.8732 77.1256C50.8738 77.7105 50.8783 78.2953 50.8854 78.8801C50.8875 79.1025 50.8882 79.3249 50.8874 79.5472C50.8776 81.163 50.5083 81.0722 51.2497 82.4823C51.418 82.6993 51.7874 82.7901 51.7874 83.098C51.9433 83.1488 51.8726 83.1987 52.0332 83.251C52.1415 83.5685 52.3682 83.5693 52.4174 83.8676C50.4783 83.9623 48.8996 83.3967 47.2197 82.4823C47.1168 82.4299 47.0139 82.3775 46.9078 82.3236C46.2399 81.9497 46.0399 81.4859 45.8022 80.7892C45.6349 80.1315 45.6109 79.4812 45.5949 78.8069C45.5916 78.6897 45.5883 78.5726 45.5849 78.452C45.5745 78.0734 45.5652 77.6949 45.5561 77.3164C45.5512 77.124 45.5512 77.124 45.5463 76.9277C45.5245 76.06 45.5051 75.1923 45.4872 74.3246C45.4833 74.1419 45.4794 73.9592 45.4753 73.771C45.4672 73.343 45.4615 72.9152 45.4577 72.4872C45.4556 72.3703 45.4536 72.2534 45.4515 72.133C45.4503 71.4679 45.4699 70.9093 45.8022 70.3227C46.216 70.0522 46.6664 69.8957 47.1311 69.7262C47.4281 69.6107 47.7246 69.4942 48.0208 69.3769C48.1895 69.3103 48.3581 69.2437 48.5319 69.1751C49.2062 68.8977 49.8699 68.6016 50.5335 68.3007C50.6568 68.2448 50.7802 68.189 50.9072 68.1315C51.4076 67.9045 51.9078 67.6771 52.4072 67.4482C52.7615 67.286 53.1163 67.1252 53.4714 66.9647C53.5782 66.9152 53.685 66.8658 53.7951 66.8148C54.3316 66.5734 55.0074 66.0129 55.6105 66.0129Z" fill="#401415"/>
<path d="M29.6237 78.7063C29.6754 78.7063 29.7271 78.7063 29.7804 78.7063C29.795 80.337 29.8061 81.9676 29.8129 83.5983C29.8161 84.3556 29.8206 85.1129 29.8277 85.8702C29.8345 86.6017 29.8383 87.3333 29.8399 88.0649C29.841 88.3432 29.8433 88.6216 29.8467 88.8999C29.8698 90.8691 29.739 92.3008 28.3492 93.7921C27.9082 94.2017 27.5137 94.4502 26.9596 94.6907C26.5776 94.6515 26.5776 94.6515 26.3328 94.534C26.3328 94.4306 26.3328 94.3271 26.3328 94.2206C26.1899 94.013 26.0383 93.8112 25.8822 93.6133C25.2883 92.8586 25.0424 92.357 25.0112 91.3825C25.0014 91.0922 25.0014 91.0922 24.9913 90.7959C24.9697 89.9119 24.9544 89.0278 24.9436 88.1436C24.9373 87.6772 24.9253 87.2116 24.9082 86.7456C24.8875 86.1808 24.8771 85.6167 24.8736 85.0516C24.8707 84.8374 24.8642 84.6231 24.8541 84.4091C24.8232 83.716 24.8365 83.1208 25.0791 82.4673C25.7025 81.8994 26.349 81.5668 27.1163 81.2137C27.3287 81.0949 27.5402 80.9746 27.7499 80.8513C27.9125 80.764 28.0751 80.6767 28.2427 80.5868C28.4098 80.4963 28.5768 80.4058 28.7489 80.3126C29.1536 80.1167 29.1536 80.1167 29.467 80.1167C29.5187 79.6513 29.5704 79.1858 29.6237 78.7063Z" fill="#C45F43"/>
<path d="M0.475798 63.3488C0.579227 63.3488 0.682655 63.3488 0.789218 63.3488C0.912039 63.5104 1.03486 63.672 1.1614 63.8385C2.12258 64.9956 3.73875 65.4585 5.09935 66.0006C5.49051 66.1695 5.49051 66.1695 5.96064 66.483C5.99963 66.8782 5.99963 66.8782 5.97227 67.3706C5.96369 67.5463 5.9551 67.7221 5.94626 67.9031C5.92914 68.1795 5.92914 68.1795 5.91167 68.4614C5.90208 68.6469 5.89248 68.8323 5.88259 69.0234C5.85852 69.4826 5.83221 69.9417 5.80393 70.4007C5.64879 70.4524 5.49365 70.5041 5.3338 70.5574C5.28209 70.6608 5.23038 70.7643 5.17709 70.8708C4.98963 70.8191 4.80217 70.7674 4.60902 70.7141C4.18401 70.6051 3.88792 70.5589 3.44349 70.577C2.81621 70.5503 2.37243 70.3095 1.88619 69.9306C1.604 69.5703 1.4077 69.1865 1.21038 68.7748C1.15816 68.6734 1.10594 68.572 1.05214 68.4675C0.475995 67.3268 0.271278 66.3861 0.289705 65.1117C0.289806 64.9766 0.289907 64.8415 0.290011 64.7022C0.297025 63.7063 0.297025 63.7063 0.475798 63.3488Z" fill="#832319"/>
<path d="M8.31133 68.5203C9.52196 68.3995 10.3676 68.8136 11.4455 69.3332C11.6087 69.4088 11.772 69.4845 11.9401 69.5624C12.8626 69.9963 13.728 70.4677 14.5797 71.0276C14.5549 71.1412 14.5301 71.2548 14.5045 71.3718C14.4291 71.7782 14.392 72.1609 14.3734 72.5733C14.3636 72.7816 14.3636 72.7816 14.3535 72.9941C14.3474 73.1371 14.3412 73.28 14.3349 73.4272C14.3247 73.6462 14.3247 73.6462 14.3144 73.8695C14.2978 74.2281 14.2818 74.5867 14.2663 74.9454C13.2395 75.0446 12.5823 74.7277 11.6904 74.2402C11.5584 74.1691 11.4264 74.0981 11.2903 74.0248C10.0504 73.3362 8.96812 72.5669 8.46804 71.1843C8.28077 70.2991 8.29502 69.4206 8.31133 68.5203Z" fill="#95331E"/>
<path d="M34.952 54.7297C34.3658 55.2356 33.6961 55.4919 32.9894 55.7857C32.7157 55.9014 32.4419 56.0171 32.1682 56.1329C31.9529 56.2233 31.9529 56.2233 31.7333 56.3156C29.5169 57.2477 27.3119 58.1977 25.138 59.2253C25.0415 59.2709 24.945 59.3165 24.8455 59.3635C24.3966 59.5756 23.9477 59.7879 23.4989 60.0003C22.6318 60.407 21.754 60.7872 20.874 61.1652C17.9083 62.4444 14.9566 63.7595 12.0393 65.146C11.915 65.2051 11.7906 65.2641 11.6625 65.325C11.4331 65.4343 11.2039 65.5442 10.9751 65.6548C10.2259 66.0128 10.2259 66.0128 9.87842 66.0128C10.0653 65.4522 10.1668 65.4249 10.6718 65.1607C10.8624 65.0598 10.8624 65.0598 11.0568 64.9569C11.5106 64.7261 11.9651 64.4972 12.4231 64.2749C12.7254 64.1262 12.7254 64.1262 13.0812 63.8679C13.6632 63.5697 14.2471 63.5463 14.8931 63.5055C14.9448 63.3503 14.9966 63.1952 15.0498 63.0353C15.9772 62.3977 17.0199 62.1193 18.1106 61.9029C18.5498 61.8097 18.5498 61.8097 18.8109 61.3115C19.0839 61.1903 19.0839 61.1903 19.4181 61.0961C20.8631 60.6499 22.2184 60.0184 23.5605 59.3263C23.9823 59.1176 23.9823 59.1176 24.4188 58.9529C24.7914 58.8375 24.7914 58.8375 24.9226 58.4908C25.3363 58.4908 25.75 58.4908 26.1762 58.4908C26.2538 58.258 26.2538 58.258 26.333 58.0206C26.695 57.9689 27.057 57.9172 27.4299 57.8639C27.5075 57.6312 27.5075 57.6312 27.5866 57.3938C28.0913 57.2087 28.6023 57.0833 29.1225 56.9488C29.6318 56.8044 29.6318 56.8044 29.9416 56.4474C30.3495 56.0419 30.6685 56.0113 31.2301 55.9148C32.0359 55.7511 32.6166 55.5426 33.2778 55.0566C33.8092 54.7138 34.3337 54.7125 34.952 54.7297Z" fill="#240E0C"/>
<path d="M24.9912 39.1763C26.4277 39.1968 27.653 39.6037 28.6836 40.6258C29.7806 41.9485 30.2507 43.1238 30.2507 43.9951C29.7806 44.2302 30.0828 44.2302 29.6239 44.2302C29.6239 44.3853 28.9187 43.992 28.9187 44.1518C28.6249 44.1126 28.3898 43.7209 28.0568 43.6033C27.9472 43.397 27.8425 43.188 27.7434 42.9765C27.5882 42.9248 27.4331 42.8731 27.2732 42.8198C27.0217 42.5302 27.0217 42.5302 26.7737 42.1831C26.6907 42.0682 26.6077 41.9533 26.5221 41.8348C26.4597 41.7461 26.3973 41.6575 26.333 41.5661C26.3847 41.4627 26.4364 41.3592 26.4897 41.2527C26.5414 41.2527 26.5931 41.2527 26.6464 41.2527C26.6464 41.1492 26.6464 41.0458 26.6464 40.9393C26.5333 40.9328 26.4202 40.9263 26.3036 40.9197C25.691 40.7291 25.4772 40.3321 25.0793 39.8423C24.5801 39.6168 24.0545 39.6733 23.5122 39.6856C23.6124 39.6371 23.7126 39.5886 23.8158 39.5387C24.5015 39.1854 24.5015 39.1854 24.9912 39.1763Z" fill="#012833"/>
<path d="M16.9303 72.1245C17.6768 72.3575 18.3746 72.6546 19.0851 72.9766C20.0211 73.3947 20.9486 73.7535 21.945 74.005C21.945 74.0567 21.945 74.1085 21.945 74.1617C21.3762 74.1617 20.8073 74.1617 20.2212 74.1617C20.2212 74.0583 20.2212 73.9549 20.2212 73.8483C20.1208 73.8198 20.0204 73.7914 19.917 73.762C17.7942 73.1451 17.7942 73.1451 17.2438 72.5946C17.0903 73.0905 17.0872 73.4811 17.1458 73.9952C17.1691 74.2013 17.1691 74.2013 17.1929 74.4115C17.2456 74.8026 17.3186 75.1862 17.4005 75.5721C17.4005 75.7273 17.4005 75.8824 17.4005 76.0423C17.5039 76.094 17.6073 76.1457 17.7139 76.199C17.6622 76.3024 17.6105 76.4058 17.5572 76.5124C17.6606 76.5124 17.764 76.5124 17.8706 76.5124C17.8706 76.6158 17.8706 76.7192 17.8706 76.8258C18.3229 77.0727 18.7377 77.2117 19.2418 77.3155C19.367 77.3418 19.4923 77.368 19.6213 77.3951C19.7159 77.4141 19.8104 77.4331 19.9078 77.4526C19.9078 77.5561 19.9078 77.6595 19.9078 77.7661C20.1405 77.8436 20.1405 77.8436 20.3779 77.9228C19.8329 78.1045 19.5225 78.0338 18.9676 77.9228C19.0193 78.0779 19.071 78.2331 19.1243 78.3929C18.5255 78.3097 18.1743 78.1583 17.7139 77.7661C17.869 77.7661 18.0242 77.7661 18.184 77.7661C18.184 77.5592 18.184 77.3524 18.184 77.1392C18.0395 77.0829 18.0395 77.0829 17.892 77.0254C17.4772 76.7782 17.3945 76.5828 17.2144 76.1402C17.1383 75.959 17.1383 75.959 17.0607 75.7741C16.7828 75.0095 16.7497 74.3171 16.754 73.5055C16.7534 73.3901 16.7528 73.2746 16.7522 73.1557C16.7538 72.3011 16.7538 72.3011 16.9303 72.1245Z" fill="#873836"/>
<path d="M29.4671 79.8032C29.5188 79.8032 29.5705 79.8032 29.6238 79.8032C29.6311 81.2867 29.6366 82.7701 29.64 84.2536C29.6417 84.9424 29.6439 85.6312 29.6474 86.32C29.6508 86.9845 29.6527 87.649 29.6535 88.3135C29.6541 88.5673 29.6552 88.821 29.6569 89.0747C29.6592 89.4297 29.6595 89.7846 29.6594 90.1395C29.6601 90.3417 29.6608 90.5439 29.6615 90.7522C29.6238 91.243 29.6238 91.243 29.3104 91.7132C29.2587 88.1449 29.2069 84.5766 29.1537 80.9002C28.9468 80.9519 28.74 81.0036 28.5268 81.0569C28.4751 80.9018 28.4234 80.7466 28.3701 80.5868C29.1145 80.1166 29.1145 80.1166 29.4671 80.1166C29.4671 80.0132 29.4671 79.9098 29.4671 79.8032Z" fill="#B15C45"/>
<path d="M36.578 74.0541C36.662 74.0896 36.7461 74.1252 36.8326 74.1618C36.6258 74.2135 36.4189 74.2653 36.2058 74.3185C36.2381 74.409 36.2704 74.4995 36.3037 74.5928C36.3783 75.0404 36.3073 75.2033 36.0491 75.5722C35.3656 76.0435 34.4845 75.9982 33.6837 76.0616C33.0513 76.1205 32.5136 76.2137 31.9232 76.4543C31.3508 76.6681 31.2573 76.6899 30.7209 76.5125C30.9046 76.4311 31.0882 76.3497 31.2774 76.2658C32.901 75.5457 32.901 75.5457 34.5212 74.8181C34.6531 74.7585 34.785 74.6989 34.9209 74.6375C35.2207 74.4963 35.5133 74.3401 35.8042 74.1814C36.2058 74.0051 36.2058 74.0051 36.578 74.0541Z" fill="#44150B"/>
<path d="M45.6299 70.244C45.785 70.244 45.9401 70.244 46.1 70.244C46.0483 73.4503 45.9966 76.6566 45.9433 79.96C45.8398 79.96 45.7364 79.96 45.6299 79.96C45.4581 74.1978 45.4581 74.1978 45.4536 72.2812C45.4529 72.161 45.4521 72.0408 45.4514 71.9169C45.453 71.3398 45.4918 70.8051 45.6299 70.244Z" fill="#5A4644"/>
<path d="M14.2661 70.8708C14.3696 70.9743 14.473 71.0777 14.5795 71.1843C14.5239 71.4706 14.5239 71.4706 14.4228 71.8111C14.4006 72.0596 14.3844 72.3087 14.3732 72.5579C14.3634 72.767 14.3634 72.767 14.3534 72.9803C14.3472 73.1245 14.341 73.2688 14.3347 73.4174C14.3245 73.6374 14.3245 73.6374 14.3142 73.8618C14.2976 74.2229 14.2816 74.5841 14.2661 74.9453C13.2392 75.0446 12.5823 74.7274 11.6902 74.2401C11.5585 74.1697 11.4269 74.0994 11.2912 74.0269C10.3688 73.5173 9.58951 72.9666 8.93799 72.1245C8.9897 72.0211 9.04142 71.9177 9.0947 71.8111C9.40498 71.9663 9.71527 72.1214 10.035 72.2812C10.035 72.4881 10.035 72.695 10.035 72.9081C10.1335 72.9366 10.2321 72.965 10.3337 72.9944C12.8024 73.7194 12.8024 73.7194 13.4826 74.4752C13.6377 74.5269 13.7929 74.5786 13.9527 74.6319C13.9669 74.3231 13.9669 74.3231 13.9815 74.0081C13.9947 73.7361 14.008 73.4641 14.0213 73.1921C14.0274 73.0567 14.0336 72.9212 14.0399 72.7817C14.0723 72.1309 14.1096 71.5062 14.2661 70.8708Z" fill="#A64E3A"/>
<path d="M29.4671 77.4526C29.4671 78.3318 29.4671 79.2109 29.4671 80.1167C28.895 80.4318 28.895 80.4318 28.3114 80.7533C28.1915 80.8202 28.0717 80.8871 27.9482 80.956C27.6758 81.1036 27.3962 81.2374 27.1165 81.3704C27.013 81.3187 26.9096 81.267 26.8031 81.2137C27.0535 81.0295 27.3051 80.847 27.5572 80.6652C27.7672 80.5125 27.7672 80.5125 27.9814 80.3567C28.3702 80.1167 28.3702 80.1167 28.8403 80.1167C28.8403 80.0133 28.8403 79.9098 28.8403 79.8033C28.9954 79.8033 29.1506 79.8033 29.3104 79.8033C29.3104 79.2344 29.3104 78.6656 29.3104 78.0795C28.578 78.038 28.0877 78.1536 27.4201 78.4517C27.2631 78.5207 27.1062 78.5898 26.9445 78.661C26.6678 78.7839 26.3928 78.9107 26.1211 79.0442C25.5489 79.2265 24.9968 79.2098 24.4034 79.196C24.2874 79.1946 24.1713 79.1932 24.0518 79.1917C23.7674 79.1881 23.4831 79.1825 23.1987 79.1764C23.1987 79.1247 23.1987 79.073 23.1987 79.0197C23.3321 79.0117 23.4654 79.0036 23.6027 78.9952C25.0615 78.8587 26.2768 78.4704 27.6192 77.8827C27.7462 77.8276 27.8732 77.7726 28.0041 77.7159C28.1163 77.6653 28.2286 77.6148 28.3442 77.5627C28.6836 77.4526 28.6836 77.4526 29.4671 77.4526Z" fill="#2C0A06"/>
<path d="M18.811 77.7661C19.6381 77.8505 20.2616 78.044 21.005 78.393C21.005 78.4964 21.005 78.5998 21.005 78.7064C20.8498 78.7064 20.6947 78.7064 20.5348 78.7064C20.5358 78.8561 20.5367 79.0059 20.5376 79.1602C20.5469 81.4972 20.4999 83.8332 20.4565 86.1697C20.4489 86.5872 20.4414 87.0046 20.4338 87.4221C20.4155 88.4346 20.3969 89.4471 20.3781 90.4596C20.3264 90.4596 20.2747 90.4596 20.2214 90.4596C20.2214 86.4776 20.2214 82.4956 20.2214 78.393C19.8594 78.393 19.4974 78.393 19.1245 78.393C19.021 78.1861 18.9176 77.9792 18.811 77.7661Z" fill="#280404"/>
<path d="M21.9451 1.29166C21.783 1.73817 21.6713 1.89599 21.2515 2.13458C21.0276 2.2264 21.0276 2.2264 20.7991 2.32007C20.3434 2.50969 19.9218 2.69355 19.5002 2.95119C19.1458 3.15955 18.8868 3.25271 18.4877 3.32889C18.0631 3.42208 17.8745 3.48271 17.518 3.75004C17.4275 3.81792 17.337 3.88579 17.2438 3.95572C16.9132 3.89023 16.9132 3.89023 16.6169 3.79901C17.712 3.06511 18.8128 2.35524 19.9862 1.75199C20.1591 1.66291 20.332 1.57382 20.5102 1.48204C21.0276 1.28289 21.3961 1.2528 21.9451 1.29166Z" fill="#B0D1FA"/>
<path d="M9.25148 66.0129C9.57898 66.0797 9.57898 66.0797 9.87832 66.1696C9.78964 66.2397 9.70095 66.3098 9.60958 66.3821C9.49464 66.4768 9.3797 66.5715 9.26127 66.6692C9.08946 66.8082 9.08946 66.8082 8.91418 66.9501C8.57804 67.3176 8.52106 67.5618 8.46793 68.0502C8.85579 68.2053 8.85579 68.2053 9.25148 68.3636C9.25148 68.4153 9.25148 68.467 9.25148 68.5203C8.94119 68.5203 8.63091 68.5203 8.31122 68.5203C8.42083 70.6318 8.42083 70.6318 9.40819 72.438C9.49404 72.5427 9.5799 72.6473 9.66835 72.7551C9.89 73.0203 10.116 73.2794 10.3484 73.535C9.33692 73.0603 8.59239 72.2084 8.15451 71.1844C8.02974 70.5569 8.01063 69.9423 7.9978 69.3038C7.98628 69.1103 7.97477 68.9168 7.96291 68.7174C7.95503 68.5231 7.94715 68.3287 7.93903 68.1285C7.93136 67.9491 7.92368 67.7698 7.91577 67.5849C7.9978 67.1099 7.9978 67.1099 8.37794 66.7506C8.51107 66.6623 8.64419 66.574 8.78135 66.4831C8.86215 66.3893 8.94296 66.2956 9.02621 66.199C9.10055 66.1376 9.17489 66.0762 9.25148 66.0129Z" fill="#320C08"/>
<path d="M14.893 4.896C14.9965 4.94771 15.0999 4.99942 15.2065 5.05271C15.1063 5.14644 15.0061 5.24017 14.9028 5.33674C14.5478 5.66514 14.5478 5.66514 14.4229 6.14968C14.2678 6.22725 14.2678 6.22725 14.1095 6.30638C14.0384 6.42921 13.9673 6.55203 13.894 6.67857C13.6322 7.10154 13.4035 7.26685 13.0125 7.56006C12.9414 7.68289 12.8703 7.80571 12.797 7.93225C12.4224 8.53744 11.9407 9.01431 11.2495 9.24469C11.1138 9.26409 11.1138 9.26409 10.9753 9.28387C10.8719 9.33559 10.7684 9.3873 10.6619 9.44058C11.1537 8.38043 11.9637 7.65932 12.8558 6.93322C12.9075 6.8298 12.9592 6.72637 13.0125 6.6198C13.1159 6.6198 13.2194 6.6198 13.3259 6.6198C13.3259 6.51638 13.3259 6.41295 13.3259 6.30638C13.5892 6.04683 13.5892 6.04683 13.9332 5.7579C14.2647 5.47749 14.5859 5.20312 14.893 4.896Z" fill="#CCE3FF"/>
<path d="M0.475987 63.3488C0.579415 63.3488 0.682844 63.3488 0.789406 63.3488C0.91546 63.5104 1.04151 63.672 1.17139 63.8385C1.78682 64.592 2.59115 64.9671 3.45347 65.386C2.98334 65.5427 2.98334 65.5427 2.68523 65.4319C2.57998 65.3747 2.47473 65.3176 2.3663 65.2587C2.26146 65.2027 2.15661 65.1467 2.04859 65.0891C1.94335 65.0319 1.8381 64.9748 1.72967 64.9159C1.61634 64.8668 1.50301 64.8177 1.38625 64.7671C1.10283 64.6024 1.10283 64.6024 0.946116 64.1323C0.842688 64.0806 0.739259 64.0289 0.632696 63.9756C0.690993 65.5014 0.844237 66.7814 1.45542 68.1872C1.57296 68.5202 1.57296 68.5202 1.41625 68.9903C1.26241 68.6869 1.10906 68.3832 0.95591 68.0794C0.870461 67.9104 0.785011 67.7413 0.696972 67.5671C0.422692 66.9995 0.29938 66.5768 0.298464 65.9534C0.298262 65.822 0.29806 65.6906 0.297852 65.5552C0.298458 65.4186 0.299064 65.2819 0.299688 65.1411C0.299082 65.0039 0.298476 64.8666 0.297852 64.7252C0.298054 64.594 0.298256 64.4628 0.298464 64.3276C0.29864 64.2075 0.298817 64.0874 0.298999 63.9636C0.319277 63.6622 0.319277 63.6622 0.475987 63.3488Z" fill="#490F0E"/>
<path d="M55.4809 65.8562C55.5843 65.9079 55.4809 66.248 55.4809 66.3263C54.992 66.756 52.1808 67.8316 51.5772 68.0746C50.6958 68.4305 49.8165 68.787 49.0362 69.3332C48.526 69.6548 48.0999 69.7524 47.512 69.8535C47.1536 69.9356 46.8756 70.0798 46.5484 70.2441C46.1175 70.2636 46.1175 70.2636 45.7649 70.2441C46.2141 69.7948 46.7715 69.6265 47.3516 69.392C48.7899 68.8019 50.1992 68.1573 51.6027 67.4888C51.7563 67.4169 51.9099 67.345 52.0682 67.2709C52.2052 67.2058 52.3421 67.1407 52.4833 67.0737C52.5933 67.0339 55.3675 65.8972 55.4809 65.8562Z" fill="#2B0E08"/>
<path d="M50.8821 71.9678C50.9338 71.9678 50.9855 71.9678 51.0388 71.9678C51.0412 72.1552 51.0412 72.1552 51.0437 72.3464C51.059 73.5225 51.0751 74.6985 51.0919 75.8746C51.1006 76.4792 51.109 77.0839 51.1167 77.6885C51.1242 78.2718 51.1324 78.855 51.1411 79.4382C51.1443 79.661 51.1472 79.8838 51.1499 80.1067C51.1537 80.4181 51.1585 80.7295 51.1633 81.041C51.1657 81.2184 51.1682 81.3959 51.1707 81.5788C51.1677 81.993 51.1677 81.993 51.3522 82.3106C51.5073 82.3623 51.6625 82.4141 51.8223 82.4673C51.8967 82.6225 51.971 82.7776 52.0476 82.9375C52.2388 83.4294 52.2388 83.4294 52.6352 83.5447C52.729 83.5512 52.8227 83.5576 52.9193 83.5643C52.9193 83.6677 52.9193 83.7712 52.9193 83.8777C52.4648 83.8959 52.2319 83.8955 51.8223 83.721C50.7391 82.5775 50.7559 81.2597 50.7902 79.7727C50.792 79.5465 50.7933 79.3204 50.7943 79.0943C50.7978 78.5042 50.807 77.9144 50.8175 77.3244C50.8272 76.7203 50.8314 76.1162 50.8361 75.5121C50.8462 74.3306 50.8622 73.1492 50.8821 71.9678Z" fill="#D46551"/>
<path d="M31.8177 76.1991C25.7695 79.0368 25.7695 79.0368 24.1389 79.0492C24.0064 79.0515 23.8739 79.0537 23.7373 79.056C23.3312 79.0176 23.0779 78.9111 22.7285 78.7064C22.9734 78.7058 22.9734 78.7058 23.2231 78.7052C24.7598 78.6733 25.9995 78.4081 27.4145 77.8096C27.8999 77.6095 27.8999 77.6095 28.2134 77.6095C28.2134 77.506 28.2134 77.4026 28.2134 77.296C28.375 77.2573 28.5366 77.2185 28.7031 77.1785C29.1442 77.0545 29.3856 76.9324 29.7805 76.6692C30.4436 76.2271 31.04 75.9399 31.8177 76.1991Z" fill="#C27151"/>
<path d="M7.99781 64.7593C7.99781 65.3824 7.78153 65.5568 7.37097 66.013C7.26108 66.0808 7.15119 66.1487 7.03796 66.2186C6.42645 66.769 6.41434 67.7608 6.36582 68.5448C6.35351 68.8239 6.34251 69.103 6.33277 69.3822C6.32671 69.526 6.32065 69.6699 6.3144 69.8181C6.29978 70.169 6.28634 70.5199 6.274 70.871C6.17057 70.871 6.06714 70.871 5.96058 70.871C5.94674 70.3519 5.93851 69.8329 5.9312 69.3137C5.92726 69.1685 5.92332 69.0234 5.91926 68.8738C5.90744 67.7503 6.01924 66.7298 6.70006 65.803C6.79217 65.7204 6.88429 65.6377 6.9792 65.5526C7.11737 65.4244 7.11737 65.4244 7.25834 65.2937C7.52768 65.0727 7.52768 65.0727 7.99781 64.7593Z" fill="#3F0C07"/>
<path d="M26.6464 0.0380416C26.6464 0.193184 26.6464 0.348327 26.6464 0.508171C25.599 0.765724 24.586 0.894317 23.5122 0.978301C23.215 1.00691 22.9179 1.03625 22.6209 1.06645C22.426 1.08615 22.426 1.08615 22.2273 1.10624C22.0876 1.12048 22.0876 1.12048 21.9451 1.13501C22.4291 0.650955 23.0277 0.580271 23.6787 0.410228C23.8075 0.37427 23.9362 0.338312 24.0689 0.301265C24.9527 0.067633 25.7327 0.00307769 26.6464 0.0380416Z" fill="#B0D1FA"/>
<path d="M39.8102 52.6925C38.8075 53.2103 37.7966 53.7064 36.7641 54.1616C36.5865 54.2404 36.409 54.3192 36.226 54.4004C35.7598 54.5645 35.4403 54.6113 34.9521 54.573C35.2656 54.1029 35.2656 54.1029 35.579 53.9853C35.8924 53.9462 35.8924 53.9462 36.2058 54.1029C36.2575 53.896 36.3093 53.6892 36.3625 53.476C36.9701 53.2891 37.4464 53.1626 38.0863 53.1626C38.0863 53.0592 38.0863 52.9558 38.0863 52.8492C38.2657 52.8153 38.2657 52.8153 38.4487 52.7806C39.4475 52.5716 39.4475 52.5716 39.8102 52.6925Z" fill="#230D0B"/>
<path d="M14.5797 63.6622C13.5713 64.1277 13.5713 64.1277 12.5425 64.6025C12.5425 64.7059 12.5425 64.8093 12.5425 64.9159C12.1576 65.0995 11.7723 65.2822 11.3868 65.4644C11.2773 65.5167 11.1678 65.569 11.055 65.6229C10.2273 66.0129 10.2273 66.0129 9.87842 66.0129C10.0653 65.4523 10.1668 65.4249 10.6718 65.1608C10.7988 65.0935 10.9259 65.0262 11.0568 64.9569C11.5096 64.7266 11.9635 64.4989 12.4194 64.275C12.6652 64.1497 12.9034 64.0098 13.1399 63.8679C13.72 63.5199 13.9032 63.4931 14.5797 63.6622Z" fill="#2D110E"/>
<path d="M26.6464 19.47C27.1088 19.42 27.3423 19.4005 27.714 19.6953C27.9937 20.2989 28.0063 20.8538 27.9001 21.5072C27.5781 22.0477 27.2537 22.4083 26.6464 22.6042C26.4913 22.5525 26.3361 22.5008 26.1763 22.4475C26.3023 22.4087 26.4284 22.3699 26.5582 22.33C26.9795 22.1823 26.9795 22.1823 27.0608 21.8525C27.182 21.1017 27.2742 20.3661 26.8815 19.6953C26.8039 19.6209 26.7263 19.5466 26.6464 19.47Z" fill="#2B4D5B"/>
<path d="M36.2055 74.0051C36.4123 74.0568 36.6192 74.1086 36.8323 74.1618C36.6255 74.2136 36.4186 74.2653 36.2055 74.3185C36.2378 74.409 36.2701 74.4995 36.3034 74.5928C36.378 75.0404 36.307 75.2033 36.0488 75.5722C35.5109 75.9707 34.9733 75.9106 34.325 75.8856C34.3598 75.5973 34.3598 75.5973 34.4817 75.2588C34.7945 75.0427 34.7945 75.0427 35.1771 74.8572C35.7015 74.6005 35.8708 74.5071 36.2055 74.0051Z" fill="#421E16"/>
<path d="M17.0871 72.1245C17.1786 72.1648 17.2701 72.205 17.3644 72.2465C17.7874 72.4321 18.211 72.6162 18.6346 72.8003C18.7785 72.8637 18.9223 72.927 19.0705 72.9922C20.0131 73.4005 20.9542 73.7339 21.9451 74.005C21.9451 74.0567 21.9451 74.1085 21.9451 74.1617C21.3763 74.1617 20.8074 74.1617 20.2213 74.1617C20.2213 74.0583 20.2213 73.9549 20.2213 73.8483C20.1209 73.8198 20.0205 73.7914 19.9171 73.762C17.7943 73.1451 17.7943 73.1451 17.2438 72.5946C17.0887 72.6722 17.0887 72.6722 16.9304 72.7514C16.9821 72.5445 17.0338 72.3376 17.0871 72.1245Z" fill="#721D13"/>
<path d="M8.93799 71.811C9.48099 72.0437 9.48099 72.0437 10.035 72.2812C10.035 72.488 10.035 72.6949 10.035 72.908C10.1335 72.9365 10.2321 72.965 10.3337 72.9943C11.1894 73.2456 12.0324 73.504 12.8557 73.8483C12.9074 73.9517 12.9592 74.0551 13.0124 74.1617C11.2603 73.943 10.081 73.535 8.93799 72.1245C8.93799 72.021 8.93799 71.9176 8.93799 71.811Z" fill="#AF4A2F"/>
<path d="M24.9224 83.8777C24.9741 83.8777 25.0258 83.8777 25.0791 83.8777C25.0807 83.982 25.0823 84.0862 25.084 84.1937C25.1009 85.2792 25.1189 86.3647 25.1374 87.4501C25.1442 87.8552 25.1507 88.2603 25.157 88.6654C25.1661 89.2477 25.176 89.8301 25.1862 90.4124C25.1888 90.5934 25.1914 90.7745 25.1941 90.961C25.1973 91.1304 25.2004 91.2998 25.2036 91.4742C25.206 91.6228 25.2085 91.7714 25.211 91.9245C25.2356 92.3373 25.3014 92.7207 25.3925 93.1236C25.2374 93.0719 25.0822 93.0201 24.9224 92.9669C24.9224 89.9674 24.9224 86.968 24.9224 83.8777Z" fill="#530501"/>
<path d="M8.62447 12.2614C8.67619 12.2614 9.43309 11.7913 9.48638 11.7913C9.32967 12.2614 8.72587 13.4425 8.2327 14.0636C8.07755 14.1153 8.15748 14.402 7.99763 14.4553C7.97177 14.5588 7.71085 14.8189 7.68421 14.9255C7.65836 15.0289 7.47579 14.9756 7.44915 15.0822C7.294 15.1339 7.21722 15.1072 7.05737 15.1605C7.26876 14.4531 7.71025 13.7779 8.08578 13.1429C8.18295 12.9768 8.28011 12.8108 8.38022 12.6397C8.50113 12.4524 8.50113 12.4524 8.62447 12.2614Z" fill="#95B5DB"/>
<path d="M20.5345 91.2432C20.7414 91.2432 20.9482 91.2432 21.1614 91.2432C21.2183 91.3992 21.2183 91.3992 21.2765 91.5584C21.5706 92.3334 21.8404 92.9781 22.4151 93.5938C21.7346 93.5153 21.3388 93.1017 20.848 92.6536C20.4891 92.1152 20.5066 91.8723 20.5345 91.2432Z" fill="#482421"/>
<path d="M9.25146 68.5203C10.6434 68.918 11.8883 69.5824 13.1692 70.2441C12.8558 70.4008 12.8558 70.4008 12.3759 70.2735C11.9155 70.0874 11.9155 70.0874 11.7588 69.7739C11.3402 69.6418 11.3402 69.6418 10.8479 69.5389C10.2711 69.4096 9.76837 69.2808 9.25146 68.9904C9.25146 68.8353 9.25146 68.6801 9.25146 68.5203Z" fill="#6F2113"/>
<path d="M38.0861 51.5956C37.8871 51.6972 37.6879 51.7983 37.4886 51.8992C37.3777 51.9556 37.2668 52.0119 37.1525 52.07C36.8324 52.2224 36.8324 52.2224 36.3623 52.3791C36.2976 52.4567 36.233 52.5343 36.1664 52.6142C35.7527 52.9688 35.3244 52.956 34.7952 53.006C34.9519 52.5358 34.9519 52.5358 35.4936 52.2445C35.7204 52.1439 35.9479 52.0452 36.1762 51.9482C36.2898 51.8967 36.4034 51.8452 36.5205 51.7921C36.6309 51.7442 36.7413 51.6963 36.855 51.647C36.9558 51.6032 37.0566 51.5594 37.1604 51.5143C37.5201 51.4235 37.738 51.4802 38.0861 51.5956Z" fill="#340E0A"/>
<path d="M10.5053 9.44067C10.63 9.86244 10.6688 10.0414 10.5542 10.4789C10.3159 10.9103 10.151 10.9567 9.72173 11.1645C9.70233 11.2647 9.68294 11.3649 9.66296 11.4681C9.56502 11.7913 9.56502 11.7913 9.08509 12.0656C8.93318 12.1302 8.78127 12.1948 8.62476 12.2615C8.90897 11.6146 9.32861 11.0672 9.74131 10.4985C9.85131 10.3457 9.85131 10.3457 9.96352 10.1899C10.1437 9.9399 10.3244 9.69025 10.5053 9.44067Z" fill="#95B5DB"/>
<path d="M24.8147 39.617C25.3557 39.9063 25.6305 40.3137 26.0194 40.7825C26.3588 40.9305 26.3588 40.9305 26.6463 40.9392C26.698 41.1461 26.7497 41.3529 26.803 41.5661C26.6996 41.5661 26.5961 41.5661 26.4896 41.5661C26.5413 41.6695 26.593 41.7729 26.6463 41.8795C25.906 41.6327 25.585 41.006 25.119 40.4011C24.7955 40.0328 24.5896 39.857 24.1389 39.6855C24.4523 39.5288 24.4523 39.5288 24.8147 39.617Z" fill="#5D6561"/>
<path d="M50.7795 81.5271C51.093 81.9972 51.093 81.9972 51.2497 82.3106C51.4048 82.3624 51.56 82.4141 51.7198 82.4674C51.7941 82.6225 51.8685 82.7776 51.9451 82.9375C52.1363 83.4294 52.1363 83.4294 52.5327 83.5447C52.6265 83.5512 52.7202 83.5577 52.8168 83.5643C52.8168 83.6678 52.8168 83.7712 52.8168 83.8777C52.359 83.8961 52.1297 83.9035 51.7198 83.721C51.1509 83.041 50.7795 82.4205 50.7795 81.5271Z" fill="#D97C67"/>
<path d="M30.4075 76.6692C30.5109 76.7209 30.6143 76.7726 30.7209 76.8259C30.5959 76.9315 30.4708 77.0372 30.342 77.1461C29.8568 77.7017 29.8063 78.0299 29.7317 78.7554C29.7097 78.9519 29.6876 79.1485 29.665 79.351C29.6514 79.5003 29.6379 79.6496 29.6239 79.8034C29.5722 79.8034 29.5205 79.8034 29.4672 79.8034C29.4672 79.0277 29.4672 78.252 29.4672 77.4527C29.3638 77.401 29.2604 77.3493 29.1538 77.296C29.3554 77.1868 29.558 77.0794 29.7611 76.9728C29.8738 76.9128 29.9865 76.8528 30.1026 76.791C30.2032 76.7508 30.3038 76.7106 30.4075 76.6692Z" fill="#49392D"/>
<path d="M18.8109 2.38867C18.966 2.44039 19.1212 2.4921 19.281 2.54538C19.1259 2.62295 19.1259 2.62295 18.9676 2.70209C18.9676 2.85723 18.9676 3.01238 18.9676 3.17222C18.7995 3.21424 18.6314 3.25626 18.4583 3.29955C17.8832 3.44467 17.8832 3.44467 17.5278 3.75009C17.4341 3.81796 17.3404 3.88584 17.2438 3.95577C16.9126 3.89027 16.9126 3.89027 16.6169 3.79906C16.9716 3.55873 17.3275 3.32081 17.6845 3.08407C17.7852 3.01549 17.8859 2.94691 17.9897 2.87625C18.2556 2.70125 18.5328 2.54371 18.8109 2.38867Z" fill="#B0D1FA"/>
<path d="M31.8179 76.1991C29.9562 77.0524 29.9562 77.0524 28.0569 77.9229C28.0051 77.8195 27.9534 77.716 27.9001 77.6095C28.0036 77.6095 28.107 77.6095 28.2136 77.6095C28.2136 77.506 28.2136 77.4026 28.2136 77.296C28.3752 77.2573 28.5368 77.2185 28.7033 77.1785C29.1444 77.0545 29.3858 76.9324 29.7807 76.6692C30.4438 76.2271 31.0402 75.9399 31.8179 76.1991Z" fill="#B96F4B"/>
<path d="M12.3857 86.542C12.5408 86.5937 12.696 86.6454 12.8558 86.6987C12.8558 86.8021 12.8558 86.9056 12.8558 87.0121C12.5638 87.2539 12.5638 87.2539 12.18 87.5116C12.0546 87.5979 11.9291 87.6842 11.7999 87.773C11.6829 87.8322 11.566 87.8914 11.4454 87.9524C11.2903 87.9007 11.1352 87.849 10.9753 87.7957C10.9236 87.6922 10.8719 87.5888 10.8186 87.4823C11.7197 87.0121 11.7197 87.0121 12.0723 87.0121C12.0723 86.9087 12.0723 86.8053 12.0723 86.6987C12.1757 86.647 12.2791 86.5953 12.3857 86.542Z" fill="#7A4733"/>
<path d="M11.2887 8.50024C11.3921 8.55196 11.4956 8.60367 11.6021 8.65695C11.5504 8.76038 11.4987 8.86381 11.4454 8.97037C11.5488 9.0738 11.6523 9.17723 11.7588 9.28379C11.2961 9.68226 10.5835 10.6942 9.56488 12.0262C9.40974 12.1038 9.40974 11.1635 9.25146 11.2427C9.46517 10.7738 10.4972 9.39502 10.8382 9.00955C10.9226 8.9134 11.007 8.81724 11.094 8.71817C11.1904 8.6103 11.1904 8.6103 11.2887 8.50024Z" fill="#B5CDEA"/>
<path d="M30.4074 43.1333C30.5108 43.185 30.6142 43.2367 30.7208 43.29C30.6816 43.5838 30.6816 43.5838 30.5641 43.9169C30.0691 44.2835 29.5977 44.2942 28.997 44.2303C28.7032 43.9952 28.7032 43.9952 28.5269 43.7601C28.5786 43.605 29.3355 44.3118 29.3888 44.1519C29.8719 44.3398 29.8589 43.9169 30.094 43.9169C30.094 43.7617 30.094 43.6066 30.094 43.4467C30.1974 43.4467 30.3008 43.4467 30.4074 43.4467C30.4074 43.3433 30.4074 43.2399 30.4074 43.1333Z" fill="#51707C"/>
<path d="M47.8021 57.0804C47.8538 57.1839 47.9055 57.2873 47.9588 57.3939C47.6296 57.5517 47.2997 57.7081 46.9695 57.864C46.7859 57.9513 46.6023 58.0385 46.4131 58.1284C45.9215 58.3341 45.9215 58.3341 45.4514 58.3341C45.5031 58.179 45.5548 58.0238 45.6081 57.864C45.815 57.864 46.0218 57.864 46.235 57.864C46.2867 57.7089 46.3384 57.5537 46.3917 57.3939C46.7155 57.2794 46.7155 57.2794 47.1067 57.2078C47.2362 57.1829 47.3656 57.1581 47.4991 57.1325C47.599 57.1153 47.699 57.0981 47.8021 57.0804Z" fill="#210C0A"/>
<path d="M24.2273 39.3722C24.9784 39.3776 25.6146 39.5021 26.333 39.715C26.333 39.8184 26.333 39.9219 26.333 40.0284C26.0609 40.0114 26.0609 40.0114 25.7833 39.9941C25.5422 39.9794 25.301 39.9647 25.0598 39.9501C24.9406 39.9426 24.8214 39.9351 24.6986 39.9274C24.0408 39.8877 22.8854 40.4692 21.1616 40.4692C21.2618 40.4207 22.9291 39.7747 23.0323 39.7248C23.7091 39.3761 23.7091 39.3761 24.2273 39.3722Z" fill="#024343"/>
<path d="M28.8402 79.8032C29.0471 79.9067 29.2539 80.0101 29.467 80.1166C29.0826 80.3304 28.6973 80.5423 28.3113 80.7533C28.1471 80.8449 28.1471 80.8449 27.9795 80.9385C27.6968 81.092 27.407 81.2322 27.1164 81.3703C27.013 81.3186 26.9095 81.2669 26.803 81.2136C27.0534 81.0294 27.305 80.8469 27.5571 80.6651C27.6971 80.5633 27.8371 80.4615 27.9814 80.3566C28.3701 80.1166 28.3701 80.1166 28.8402 80.1166C28.8402 80.0132 28.8402 79.9098 28.8402 79.8032Z" fill="#3B0A07"/>
<path d="M21.945 1.29168C21.945 1.39511 21.945 1.49854 21.945 1.6051C21.6515 1.70721 21.3576 1.8082 21.0636 1.90872C20.8999 1.96508 20.7363 2.02144 20.5677 2.07951C20.0865 2.22528 19.6214 2.31773 19.1243 2.38865C19.8436 1.59172 20.8764 1.18208 21.945 1.29168Z" fill="#B0D1FA"/>
<path d="M5.80409 67.2666C5.90751 67.2666 6.01094 67.2666 6.11751 67.2666C6.06579 68.4043 6.01408 69.542 5.9608 70.7142C5.70222 70.7659 5.44365 70.8176 5.17725 70.8709C5.25482 70.6382 5.25482 70.6382 5.33396 70.4008C5.4891 70.4008 5.64424 70.4008 5.80409 70.4008C5.80409 69.3665 5.80409 68.3322 5.80409 67.2666Z" fill="#AC5C49"/>
<path d="M23.6688 0.978339C23.447 1.29714 23.2692 1.43344 22.8883 1.51458C22.5747 1.55233 22.2598 1.57937 21.945 1.60518C21.945 1.50175 21.945 1.39832 21.945 1.29176C21.8416 1.24004 21.7382 1.18833 21.6316 1.13505C22.9524 0.754468 22.9524 0.754468 23.6688 0.978339Z" fill="#B0D1FA"/>
<path d="M22.415 93.5938C23.3553 93.9072 23.3553 93.9072 23.8058 94.0737C24.211 94.1952 24.5362 94.2512 24.9518 94.2892C25.5492 94.3773 25.5492 94.3773 25.8627 94.6222C25.9144 94.6965 25.9661 94.7708 26.0194 94.8474C24.8005 94.712 23.4119 94.5067 22.415 93.7505C22.415 93.6987 22.415 93.647 22.415 93.5938Z" fill="#49403B"/>
<path d="M51.7197 53.1626C52.0331 53.476 52.0331 53.476 52.0331 53.7894C51.8764 54.1029 51.8764 54.1029 51.4259 54.3085C50.9362 54.4163 50.9362 54.4163 50.466 54.2596C50.4143 54.363 50.3626 54.4664 50.3093 54.573C50.3093 54.4178 50.3093 54.2627 50.3093 54.1029C50.4839 54.035 50.6584 53.9671 50.8382 53.8972C51.4337 53.6799 51.4337 53.6799 51.7197 53.1626Z" fill="#261913"/>
<path d="M4.70679 84.0345C4.7585 84.138 4.81022 84.2414 4.8635 84.348C4.96693 84.348 5.07035 84.348 5.17692 84.348C5.37385 84.8034 5.49034 85.0996 5.49034 85.6016C5.59377 85.6016 5.69719 85.6016 5.80376 85.6016C5.85547 85.8602 5.90718 86.1188 5.96047 86.3852C5.38509 85.8565 5.00086 85.3888 4.70679 84.6614C4.70679 84.4545 4.70679 84.2477 4.70679 84.0345Z" fill="#280A0A"/>
<path d="M21.3182 22.761C21.6316 23.0744 21.6316 23.0744 21.6708 23.5347C21.6316 24.0147 21.6316 24.0147 21.3182 24.4848C20.9069 24.6709 20.9069 24.6709 20.5347 24.7982C20.6381 24.3845 20.8199 24.4409 20.9264 24.0147C21.0299 24.1181 21.0549 23.7514 21.1615 23.858C21.2132 23.496 21.2649 23.134 21.3182 22.761Z" fill="#254F62"/>
<path d="M18.8893 3.17214C18.2263 3.6249 16.3819 4.26912 14.1096 6.54141C14.1682 6.13336 15.9449 4.43516 16.2576 4.15675C16.3665 4.08989 16.4754 4.02302 16.5876 3.95413C16.6953 3.88525 16.8029 3.81636 16.9139 3.74539C17.3054 3.58631 18.4991 3.02924 18.8893 3.17214Z" fill="#B0D1FA"/>
<path d="M0.946045 63.8188C1.03513 63.8795 1.12422 63.9401 1.216 64.0025C1.94707 64.4956 2.68179 64.9591 3.4534 65.3859C2.98327 65.5427 2.98327 65.5427 2.68516 65.4319C2.57991 65.3747 2.47466 65.3175 2.36623 65.2586C2.26139 65.2027 2.15654 65.1467 2.04852 65.0891C1.89065 65.0033 1.89065 65.0033 1.72959 64.9158C1.61627 64.8732 1.50294 64.8306 1.38618 64.7867C1.10275 64.6024 1.10275 64.6024 0.985222 64.191C0.972294 64.0682 0.959365 63.9454 0.946045 63.8188Z" fill="#5F0A05"/>
<path d="M25.8627 82.1541C25.8139 82.4512 25.7649 82.7483 25.7158 83.0453C25.6885 83.2108 25.6612 83.3762 25.6331 83.5467C25.56 83.9723 25.4796 84.3952 25.3925 84.8181C25.3408 84.8181 25.2891 84.8181 25.2358 84.8181C25.2358 83.9907 25.2358 83.1633 25.2358 82.3108C25.5493 82.1541 25.5493 82.1541 25.8627 82.1541Z" fill="#C66746"/>
<path d="M0.47583 66.4829C0.984014 67.0673 1.33961 67.784 1.5728 68.5201C1.52108 68.6753 1.46937 68.8304 1.41609 68.9903C1.25784 68.6907 1.10149 68.3902 0.94596 68.0892C0.858692 67.9219 0.771424 67.7547 0.681512 67.5823C0.47583 67.1097 0.47583 67.1097 0.47583 66.4829Z" fill="#3A0706"/>
<path d="M18.184 77.296C18.566 77.4038 18.566 77.4038 18.9675 77.6094C19.0949 78.0208 19.0949 78.0208 19.1243 78.393C18.5255 78.3098 18.1743 78.1584 17.7139 77.7662C17.869 77.7662 18.0242 77.7662 18.184 77.7662C18.184 77.611 18.184 77.4559 18.184 77.296Z" fill="#1A0402"/>
<path d="M17.0872 76.0422C17.1809 76.1651 17.2746 76.2879 17.3712 76.4144C17.7 76.8486 17.7 76.8486 18.1841 77.1392C18.1841 77.3461 18.1841 77.5529 18.1841 77.766C17.9001 77.7563 17.9001 77.7563 17.5573 77.6093C17.2732 77.0615 17.0872 76.6628 17.0872 76.0422Z" fill="#1A0402"/>
<path d="M28.2134 57.7073C27.9108 57.8691 27.607 58.0287 27.3026 58.1872C27.1335 58.2763 26.9644 58.3654 26.7902 58.4572C26.3329 58.6475 26.3329 58.6475 25.8628 58.4908C25.9662 58.4908 26.0696 58.4908 26.1762 58.4908C26.2279 58.3357 26.2796 58.1805 26.3329 58.0207C26.68 57.8664 26.68 57.8664 27.1067 57.7464C27.2471 57.7052 27.3875 57.664 27.5321 57.6216C27.9 57.5506 27.9 57.5506 28.2134 57.7073Z" fill="#1F0A08"/>
<path d="M42.5818 51.0961C42.7612 51.1106 42.7612 51.1106 42.9442 51.1255C42.9442 51.2289 42.9442 51.3323 42.9442 51.4389C42.7199 51.5485 42.4944 51.6558 42.2684 51.7621C42.0803 51.8521 42.0803 51.8521 41.8883 51.9439C41.5339 52.0657 41.5339 52.0657 41.0637 51.909C41.1575 51.867 41.2512 51.825 41.3478 51.7817C41.6973 51.6172 41.6973 51.6172 41.9158 51.3409C42.1607 51.1255 42.1607 51.1255 42.5818 51.0961Z" fill="#2C0C0B"/>
<path d="M36.2057 74.0051C36.4126 74.0568 36.6194 74.1086 36.8325 74.1618C36.6257 74.2136 36.4188 74.2653 36.2057 74.3185C36.2348 74.4123 36.2639 74.506 36.2938 74.6026C36.3624 74.9454 36.3624 74.9454 36.2057 75.4155C35.9988 75.3638 35.792 75.3121 35.5789 75.2588C35.7551 74.7931 35.9272 74.4229 36.2057 74.0051Z" fill="#462221"/>
<path d="M8.31128 68.5203C8.62156 68.5203 8.93185 68.5203 9.25154 68.5203C9.25154 68.6237 9.25154 68.7271 9.25154 68.8337C9.14811 68.8337 9.04468 68.8337 8.93812 68.8337C8.78298 69.2474 8.62783 69.6611 8.46799 70.0874C8.41627 70.0874 8.36456 70.0874 8.31128 70.0874C8.31128 69.5702 8.31128 69.0531 8.31128 68.5203Z" fill="#7C2E26"/>
<path d="M1.72948 68.5203C1.78119 68.6237 1.83291 68.7271 1.88619 68.8337C2.09232 68.9436 2.30166 69.0476 2.51303 69.1471C2.66817 69.2505 2.82332 69.354 2.98316 69.4605C2.98316 69.564 2.98316 69.6674 2.98316 69.7739C2.45725 69.68 2.14037 69.4846 1.72948 69.1471C1.67777 69.2505 1.62605 69.354 1.57277 69.4605C1.56608 69.1994 1.5664 68.9381 1.57277 68.677C1.62448 68.6253 1.6762 68.5735 1.72948 68.5203Z" fill="#722525"/>
<path d="M7.13607 14.9254C7.2395 14.9771 7.26458 15.1856 7.37114 15.2388C7.37114 15.3423 7.26822 15.4427 7.21443 15.5523C7.14537 15.6929 7.13607 15.709 7.05772 15.8657C6.97936 16.0224 6.87593 16.0412 6.82265 16.4142C6.71922 16.4142 6.69416 16.6492 6.5876 16.6492C6.53588 16.8561 6.48417 17.0629 6.43089 17.2761C6.22634 16.6624 6.38036 16.4864 6.65616 15.9146C6.73029 15.7589 6.80443 15.6031 6.88081 15.4427C6.93919 15.3237 7.07592 15.048 7.13607 14.9254Z" fill="#95B5DB"/>
<path d="M10.662 9.44067C10.8238 9.87762 10.8258 10.0468 10.6718 10.4985C10.6168 10.6148 10.5619 10.7312 10.5053 10.8511C10.3501 10.8511 10.195 10.8511 10.0352 10.8511C10.1183 10.2523 10.2698 9.90113 10.662 9.44067Z" fill="#95B5DB"/>
<path d="M18.3406 77.296C18.8577 77.3477 19.3749 77.3994 19.9077 77.4527C19.9077 77.5562 19.9077 77.6596 19.9077 77.7662C20.0628 77.8179 20.218 77.8696 20.3778 77.9229C19.7968 78.1165 19.6452 78.0118 19.0947 77.7759C18.9535 77.7164 18.8123 77.6568 18.6669 77.5954C18.5592 77.5483 18.4515 77.5012 18.3406 77.4527C18.3406 77.401 18.3406 77.3493 18.3406 77.296Z" fill="#823222"/>
<path d="M12.5424 62.8787C11.9851 63.2393 11.4537 63.4702 10.8186 63.6622C10.9753 63.1921 10.9753 63.1921 11.5042 62.9178C12.0723 62.722 12.0723 62.722 12.5424 62.8787Z" fill="#3F120B"/>
<path d="M33.3848 19.0782C33.4365 19.2851 33.4882 19.4136 33.5415 19.6267C33.3863 19.7302 33.2312 19.8336 33.0714 19.9402C33.0196 20.0953 32.9679 20.2504 32.9147 20.4103C32.6561 20.3586 32.3975 20.3069 32.1311 20.2536C32.338 20.1501 32.5448 20.0467 32.7579 19.9402C32.7579 19.8367 32.8363 19.9684 32.8363 19.8618C33.0388 19.6466 33.1692 19.2803 33.3848 19.0782Z" fill="#334F53"/>
<path d="M27.7435 66.3263C27.4932 66.462 27.2415 66.5955 26.9894 66.7279C26.8494 66.8024 26.7094 66.8769 26.5651 66.9537C26.1764 67.1098 26.1764 67.1098 25.7063 66.9531C25.8065 66.9079 25.9067 66.8626 26.0099 66.816C26.357 66.6666 26.357 66.6666 26.4898 66.3263C27.3438 66.1264 27.3438 66.1264 27.7435 66.3263Z" fill="#210906"/>
<path d="M26.0197 93.9072C26.2783 94.1141 26.5369 94.3209 26.8033 94.5341C26.4413 94.5858 26.0793 94.6375 25.7063 94.6908C25.7063 94.4839 25.7063 94.2771 25.7063 94.0639C25.8097 94.0122 25.9132 93.9605 26.0197 93.9072Z" fill="#340A06"/>
<path d="M8.93799 71.811C9.69718 72.0595 9.69718 72.0595 10.035 72.2812C10.1819 72.7807 10.1819 72.7807 10.1917 73.2214C10.0111 73.0757 9.83177 72.9285 9.65298 72.7807C9.50299 72.658 9.50299 72.658 9.34996 72.5328C9.0947 72.2812 9.0947 72.2812 8.93799 71.811Z" fill="#B7503C"/>
<path d="M25.9805 0.0282619C26.1057 0.029676 26.231 0.0310901 26.36 0.032547C26.4545 0.0343651 26.5491 0.0361831 26.6465 0.0380563C26.6465 0.0897706 26.6465 0.141485 26.6465 0.194766C25.7932 0.272338 25.7932 0.272338 24.9227 0.351476C24.9227 0.454905 24.9227 0.558333 24.9227 0.664896C24.4573 0.587324 24.4573 0.587324 23.9824 0.508186C24.6586 0.145948 25.2137 0.0169861 25.9805 0.0282619Z" fill="#B0D1FA"/>
<path d="M31.8177 76.199C31.1972 76.4576 30.5766 76.7162 29.9372 76.9826C29.8855 76.8792 29.8338 76.7757 29.7805 76.6692C31.2783 76.0192 31.2783 76.0192 31.8177 76.199Z" fill="#BA6841"/>
<path d="M11.2886 73.3782C11.5175 73.4182 11.746 73.4612 11.9742 73.5055C12.1651 73.541 12.1651 73.541 12.3598 73.5771C12.699 73.6916 12.699 73.6916 13.0124 74.1617C12.7834 74.1217 12.555 74.0787 12.3268 74.0344C12.1995 74.0108 12.0722 73.9871 11.9411 73.9628C11.602 73.8483 11.602 73.8483 11.2886 73.3782Z" fill="#AF3F22"/>
<path d="M21.1026 73.7602C21.2598 73.8052 21.417 73.8503 21.5789 73.8967C21.6997 73.9324 21.8205 73.9682 21.9449 74.005C21.9449 74.0567 21.9449 74.1085 21.9449 74.1617C21.3761 74.1617 20.8072 74.1617 20.2211 74.1617C20.2211 74.0583 20.2211 73.9549 20.2211 73.8483C20.1177 73.7966 20.0143 73.7449 19.9077 73.6916C20.3623 73.4643 20.6223 73.6205 21.1026 73.7602Z" fill="#7C2914"/>
<path d="M9.72167 63.8188C9.8251 63.8706 9.92852 63.9223 10.0351 63.9756C9.80715 64.1331 9.57848 64.2897 9.34948 64.4457C9.15858 64.5766 9.15858 64.5766 8.96383 64.7101C8.6247 64.9158 8.6247 64.9158 8.31128 64.9158C8.46799 64.4457 8.46799 64.4457 8.74652 64.2571C8.85823 64.203 8.96994 64.1489 9.08503 64.0931C9.19634 64.0373 9.30765 63.9816 9.42233 63.9241C9.52111 63.8894 9.61989 63.8546 9.72167 63.8188Z" fill="#3A0903"/>
<path d="M43.4142 59.1177C43.4142 59.2211 43.4142 59.3245 43.4142 59.4311C42.8097 59.7685 42.3876 59.9627 41.6904 59.9012C42.1606 59.5878 42.1606 59.5878 42.474 59.5878C42.474 59.4844 42.474 59.3809 42.474 59.2744C42.7992 59.1877 43.0763 59.1177 43.4142 59.1177Z" fill="#200B09"/>
<path d="M40.5935 50.4985C40.5418 50.6019 40.49 50.7054 40.4368 50.8119C40.2299 50.7602 40.023 50.7085 39.8099 50.6552C39.8099 50.7587 39.8099 50.8621 39.8099 50.9686C39.5513 51.0204 39.2928 51.0721 39.0264 51.1254C39.1831 50.6552 39.1831 50.6552 39.5455 50.4593C39.9821 50.3375 40.1757 50.3438 40.5935 50.4985Z" fill="#2C0E08"/>
<path d="M29.1536 91.7133C29.2053 91.8684 29.257 92.0235 29.3103 92.1834C29.1542 92.4693 29.1542 92.4693 28.9283 92.7613C28.8542 92.8588 28.78 92.9564 28.7037 93.0569C28.6453 93.1307 28.5869 93.2044 28.5268 93.2804C28.3505 92.6927 28.3505 92.6927 28.5268 92.3401C28.6819 92.3401 28.837 92.3401 28.9969 92.3401C29.0486 92.1332 29.1003 91.9264 29.1536 91.7133Z" fill="#944C37"/>
<path d="M5.33374 85.915C5.88624 86.1729 6.34159 86.3924 6.74413 86.8553C6.84756 86.9587 6.95099 87.0622 7.05755 87.1687C6.26707 87.099 5.89093 86.7597 5.33374 86.2285C5.33374 86.125 5.33374 86.0216 5.33374 85.915Z" fill="#5A4D4B"/>
<path d="M13.4827 70.5574C13.8705 70.6349 13.8705 70.6349 14.2662 70.7141C14.2662 71.0244 14.2662 71.3347 14.2662 71.6543C13.9984 71.3999 13.7374 71.1383 13.4827 70.8708C13.4827 70.7674 13.4827 70.6639 13.4827 70.5574Z" fill="#882C16"/>
<path d="M50.6228 52.6925C51.0107 52.7701 51.0107 52.7701 51.4064 52.8492C51.4064 53.0561 51.4064 53.2629 51.4064 53.4761C51.1995 53.4761 50.9926 53.4761 50.7795 53.4761C50.7278 53.2175 50.6761 52.9589 50.6228 52.6925Z" fill="#EE8653"/>
<path d="M27.5866 42.3496C27.9377 42.801 28.2388 43.2662 28.5269 43.76C28.2232 43.6327 28.2232 43.6327 27.9 43.4466C27.8483 43.2914 27.7966 43.1363 27.7433 42.9764C27.5882 42.9247 27.433 42.873 27.2732 42.8197C27.4299 42.5063 27.4299 42.5063 27.5866 42.3496Z" fill="#7C807B"/>
<path d="M26.333 41.2527C26.7052 41.3604 26.7052 41.3604 27.1166 41.5661C27.3222 41.9775 27.3222 41.9775 27.43 42.3497C27.2748 42.3497 27.1197 42.3497 26.9598 42.3497C26.333 41.6691 26.333 41.6691 26.333 41.2527Z" fill="#262A2A"/>
<path d="M25.8628 40.9393C26.1214 40.9393 26.3799 40.9393 26.6463 40.9393C26.6981 41.1462 26.7498 41.353 26.8031 41.5662C26.6996 41.5662 26.5962 41.5662 26.4896 41.5662C26.5413 41.6696 26.5931 41.773 26.6463 41.8796C26.4912 41.8279 26.3361 41.7762 26.1762 41.7229C25.9901 41.3213 25.9901 41.3213 25.8628 40.9393Z" fill="#484F50"/>
<path d="M13.9527 73.8484C14.0044 73.8484 14.0561 73.8484 14.1094 73.8484C14.1094 74.1587 14.1094 74.469 14.1094 74.7886C13.7474 74.6335 13.3854 74.4784 13.0125 74.3185C13.1159 74.2668 13.2193 74.2151 13.3259 74.1618C13.4293 74.2135 13.5327 74.2652 13.6393 74.3185C13.691 74.2151 13.7427 74.1117 13.796 74.0051C13.8477 73.9534 13.8994 73.9017 13.9527 73.8484Z" fill="#A44027"/>
<path d="M43.4142 49.2449C43.5176 49.2966 43.6211 49.3483 43.7276 49.4016C43.8207 49.8166 43.8439 50.2309 43.8844 50.6553C43.5709 50.0676 43.5709 50.0676 43.5709 49.715C43.4158 49.7667 43.2606 49.8184 43.1008 49.8717C43.0491 49.7166 42.9974 49.5614 42.9441 49.4016C43.0992 49.3499 43.2544 49.2982 43.4142 49.2449Z" fill="#230D0A"/>
<path d="M21.1614 24.0146C21.2131 24.1698 21.2648 24.3249 21.3181 24.4848C21.1112 24.6916 20.7477 24.8985 20.5346 25.1116C20.3794 25.0599 20.0676 25.2433 19.9077 25.19C20.0111 25.19 20.3496 24.8766 20.4562 24.8766C20.5079 24.6697 20.638 24.5412 20.6913 24.3281C20.7947 24.3281 20.8981 24.3281 21.0047 24.3281C21.0564 24.2246 21.1081 24.1212 21.1614 24.0146Z" fill="#0E3A4A"/>
<path d="M33.6983 17.9813C33.8018 17.9813 33.7485 18.5298 33.855 18.5298C33.8033 18.8401 33.7516 19.1504 33.6983 19.4701C33.4398 19.5218 33.1028 19.6519 32.8364 19.7051C32.9399 19.55 33.1216 19.3165 33.2282 19.1566C33.3316 19.1566 33.2783 19.0783 33.3849 19.0783C33.6983 18.5298 33.6983 18.1944 33.6983 17.9813Z" fill="#043F53"/>
<path d="M16.3035 3.95581C16.407 4.00752 16.5104 4.05924 16.617 4.11252C16.4101 4.37109 16.2032 4.62966 15.9901 4.89607C15.7833 4.84436 15.5764 4.79264 15.3633 4.73936C15.5184 4.68765 15.6736 4.63593 15.8334 4.58265C15.8334 4.47922 15.8334 4.37579 15.8334 4.26923C15.9886 4.1658 16.1437 4.06237 16.3035 3.95581Z" fill="#CCE3FF"/>
<path d="M7.99763 64.7593C7.99763 65.3718 7.76168 65.561 7.37079 66.013C7.26736 65.9612 7.16394 65.9095 7.05737 65.8562C7.27572 65.3286 7.5242 65.0749 7.99763 64.7593Z" fill="#390A07"/>
<path d="M27.1165 21.5073C27.22 21.7142 27.3234 21.921 27.4299 22.1342C27.0676 22.379 27.0676 22.379 26.6464 22.6043C26.4913 22.5526 26.3361 22.5009 26.1763 22.4476C26.3023 22.4088 26.4284 22.37 26.5582 22.3301C26.9866 22.1777 26.9866 22.1777 27.0871 21.8012C27.0968 21.7042 27.1065 21.6072 27.1165 21.5073Z" fill="#3F565F"/>
<path d="M21.1616 92.6536C21.6718 92.7082 21.7914 92.8136 22.1411 93.2118C22.2316 93.3379 22.3221 93.464 22.4153 93.5938C21.8214 93.509 21.5512 93.2555 21.1616 92.8103C21.1616 92.7586 21.1616 92.7068 21.1616 92.6536Z" fill="#4A3535"/>
<path d="M20.3779 77.7661C20.7445 77.8111 21.1103 77.8632 21.4749 77.9228C21.3182 78.2362 21.3182 78.2362 21.0243 78.3636C20.6913 78.393 20.6913 78.393 20.4171 78.1677C20.3524 78.0869 20.2878 78.0061 20.2212 77.9228C20.2729 77.8711 20.3246 77.8194 20.3779 77.7661Z" fill="#A73B24"/>
<path d="M2.66992 69.9307C3.03192 69.9824 3.39392 70.0341 3.76689 70.0874C3.81861 70.2425 3.87032 70.3977 3.9236 70.5575C3.34573 70.4794 3.04526 70.385 2.66992 69.9307Z" fill="#410F11"/>
</svg>
